<svg width="115" height="78" viewBox="0 0 115 78" fill="none" xmlns="http://www.w3.org/2000/svg">
    <path
        d="M36.2882 141.846V69.9443C36.2883 69.8127 36.246 69.6848 36.1675 69.5794C36.0891 69.474 35.9788 69.3968 35.853 69.3595L26.4492 66.6166L6.83693 60.9082C6.74734 60.8812 6.65275 60.8757 6.56063 60.8919C6.4685 60.9082 6.38141 60.9458 6.30638 61.0018C6.23136 61.0579 6.17046 61.1307 6.12853 61.2146C6.08661 61.2984 6.06486 61.391 6.06497 61.4849C6.06497 63.0499 6.06497 66.3529 6.06497 66.4765V70.2327H9.43222C10.5939 70.2348 11.7074 70.6992 12.5281 71.5238C13.3488 72.3485 13.8096 73.4661 13.8096 74.6312C13.8031 74.8409 13.7839 75.05 13.7522 75.2573H15.5344C16.6976 75.2573 17.813 75.7206 18.6355 76.5455C19.458 77.3704 19.9201 78.4893 19.9201 79.6559C19.9201 80.8224 19.458 81.9413 18.6355 82.7662C17.813 83.5911 16.6976 84.0544 15.5344 84.0544H6.07319V118.856C6.07984 118.9 6.07984 118.944 6.07319 118.988C6.04576 119.132 5.96689 119.261 5.85143 119.351L-6.46786 128.181C-6.49695 128.203 -6.52082 128.232 -6.53783 128.265C-6.55485 128.297 -6.5646 128.333 -6.56641 128.37V141.862C-6.56388 141.903 -6.55028 141.942 -6.52711 141.976C-6.50394 142.009 -6.47206 142.035 -6.43497 142.052C-6.39984 142.06 -6.36333 142.06 -6.3282 142.052H36.0911C36.1417 142.043 36.1882 142.019 36.2238 141.982C36.2593 141.945 36.2818 141.897 36.2882 141.846Z"
        fill="#9EDDFF" />
    <path
        d="M70.0262 99.7296L58.6432 105.405L50.5289 109.449C50.4346 109.513 50.3544 109.596 50.2936 109.692C50.2328 109.789 50.1927 109.897 50.1757 110.009V142.134H41.1416V136.681C41.1416 136.52 41.2057 136.365 41.3197 136.25C41.4336 136.136 41.5882 136.072 41.7493 136.072H44.7471V91.855C44.7471 91.6933 44.8111 91.5382 44.9251 91.4239C45.0391 91.3096 45.1936 91.2454 45.3548 91.2454H54.8489V58.2146V49.1868V37.4901C54.8341 37.2622 54.7316 37.0488 54.5631 36.8952C54.3945 36.7415 54.1731 36.6595 53.9454 36.6664H27.1962C26.6213 36.6664 26.457 36.9959 26.457 37.4901V66.5753L35.8608 69.3182C35.9866 69.3555 36.0968 69.4327 36.1753 69.5381C36.2538 69.6435 36.2961 69.7715 36.296 69.9031V141.805C36.2939 141.867 36.2679 141.925 36.2234 141.968C36.179 142.011 36.1197 142.035 36.0579 142.035H70.7243V100.257C70.7391 100.168 70.7292 100.076 70.6957 99.9922C70.6623 99.9083 70.6066 99.8353 70.5346 99.7809C70.4627 99.7266 70.3772 99.6931 70.2876 99.684C70.198 99.675 70.1075 99.6907 70.0262 99.7296ZM61.0495 122.406C61.0496 122.446 61.0416 122.485 61.0263 122.522C61.0109 122.558 60.9884 122.591 60.9601 122.619C60.9318 122.647 60.8982 122.668 60.8614 122.683C60.8245 122.697 60.7852 122.704 60.7457 122.703H54.7092C54.6301 122.703 54.554 122.672 54.4972 122.616C54.4405 122.561 54.4075 122.486 54.4054 122.406V116.344C54.4054 115.46 54.7553 114.613 55.3783 113.988C56.0014 113.363 56.8464 113.012 57.7275 113.012C58.6086 113.012 59.4536 113.363 60.0766 113.988C60.6996 114.613 61.0495 115.46 61.0495 116.344V122.406Z"
        fill="#B8E6FF" />
    <path
        d="M19.929 79.6644C19.929 78.4978 19.4669 77.379 18.6444 76.5541C17.822 75.7292 16.7064 75.2658 15.5433 75.2658H13.7611C13.7929 75.0585 13.812 74.8494 13.8186 74.6398C13.8186 73.4746 13.3577 72.357 12.537 71.5324C11.7163 70.7077 10.6029 70.2434 9.44116 70.2412H-4.75889C-5.92205 70.2412 -7.0375 70.7046 -7.85997 71.5295C-8.68244 72.3544 -9.14453 73.4732 -9.14453 74.6398C-9.14453 75.8064 -8.68244 76.9251 -7.85997 77.75C-7.0375 78.5749 -5.92205 79.0384 -4.75889 79.0384H-2.97667C-3.01519 79.245 -3.03713 79.4543 -3.04234 79.6644C-3.04234 80.831 -2.58035 81.9498 -1.75787 82.7747C-0.935403 83.5996 0.180149 84.063 1.3433 84.063H15.5433C16.7064 84.063 17.822 83.5996 18.6444 82.7747C19.4669 81.9498 19.929 80.831 19.929 79.6644Z"
        fill="#B8E6FF" />
    <path
        d="M18.5181 38.237C18.0034 40.7683 13.7545 43.3452 13.0306 43.7165C12.9717 43.7312 12.9104 43.7336 12.8506 43.7234C12.7907 43.7132 12.7337 43.6908 12.683 43.6574C11.2183 41.6931 9.25748 39.231 9.71646 36.4668C10.1754 33.7026 12.6104 31.9982 15.1162 32.5078C17.6221 33.0174 19.0766 35.4931 18.5181 38.237Z"
        fill="#F58B00" />
    <path
        d="M10.5047 35.5011C10.4752 35.5013 10.4461 35.4938 10.4204 35.4792C10.3818 35.4569 10.3536 35.4203 10.3419 35.3773C10.3302 35.3343 10.3359 35.2884 10.3579 35.2497C10.4324 35.1177 10.5164 34.9913 10.6094 34.8717C10.6233 34.8543 10.6405 34.8399 10.66 34.8293C10.6795 34.8186 10.701 34.8119 10.7231 34.8095C10.7452 34.8072 10.7675 34.8092 10.7889 34.8155C10.8102 34.8219 10.83 34.8323 10.8473 34.8464C10.8645 34.8604 10.8788 34.8777 10.8893 34.8973C10.8998 34.9169 10.9063 34.9383 10.9085 34.9604C10.9107 34.9825 10.9085 35.0048 10.9021 35.0261C10.8956 35.0474 10.885 35.0671 10.8709 35.0843C10.7902 35.1917 10.7169 35.3045 10.6516 35.4218C10.6361 35.4466 10.6144 35.467 10.5886 35.4809C10.5629 35.4948 10.534 35.5018 10.5047 35.5011Z"
        fill="#CC7400" />
    <path
        d="M9.95049 54.1321C9.93169 54.1319 9.9132 54.1273 9.89649 54.1186C9.8834 54.1116 9.87183 54.102 9.86245 54.0904C9.85307 54.0789 9.84606 54.0656 9.84183 54.0513C9.83759 54.0371 9.83622 54.0221 9.83778 54.0073C9.83935 53.9925 9.84381 53.9782 9.85093 53.9651C9.92349 53.8284 9.94543 53.7204 9.91336 53.6579C9.8813 53.5955 9.8543 53.6056 9.78681 53.5803C9.68471 53.5535 9.59736 53.4874 9.54382 53.3964C9.52131 53.346 9.51039 53.2911 9.51185 53.2359C9.51331 53.1808 9.52712 53.1266 9.55226 53.0774C9.58444 52.9869 9.60596 52.8928 9.61638 52.7973C9.62499 52.7198 9.61928 52.6415 9.59951 52.5661C9.57969 52.4919 9.57228 52.4149 9.57757 52.3383C9.59107 52.1476 9.59276 51.9687 9.59444 51.7797C9.59613 51.5907 9.59444 51.4253 9.60625 51.2059C9.65499 50.6895 9.73615 50.1766 9.84924 49.6703C9.89688 49.4935 9.92851 49.3127 9.94374 49.1303C9.90493 48.6105 10.504 47.8849 10.941 47.3533C11.0619 47.2195 11.1745 47.0787 11.2785 46.9314C11.7551 46.128 12.1899 45.3006 12.5812 44.4524C12.594 44.4254 12.617 44.4045 12.6451 44.3944C12.6733 44.3842 12.7043 44.3857 12.7314 44.3984C12.7447 44.4046 12.7567 44.4133 12.7666 44.4241C12.7765 44.4349 12.7842 44.4476 12.7893 44.4614C12.7943 44.4752 12.7965 44.4899 12.7959 44.5045C12.7952 44.5192 12.7916 44.5336 12.7854 44.5469C12.3913 45.4027 11.9531 46.2375 11.4725 47.0478C11.3656 47.2047 11.2495 47.3551 11.1249 47.4984C10.7351 47.9709 10.1462 48.6797 10.1783 49.1151C10.1657 49.3229 10.1312 49.5288 10.0754 49.7293C9.96808 50.2199 9.88976 50.7163 9.84081 51.2161C9.83068 51.4304 9.82899 51.6093 9.82899 51.7814C9.82899 51.9535 9.82899 52.156 9.81212 52.3552C9.80733 52.412 9.81305 52.4692 9.82899 52.5239C9.85343 52.6226 9.86029 52.7249 9.84924 52.826C9.83862 52.9411 9.81368 53.0545 9.77499 53.1635C9.74462 53.2546 9.73787 53.2799 9.75306 53.3086C9.76825 53.3373 9.80875 53.3593 9.87456 53.3829C9.97115 53.4086 10.0555 53.4678 10.1125 53.5499C10.1461 53.6349 10.1579 53.727 10.147 53.8177C10.1361 53.9085 10.1028 53.9951 10.05 54.0697C10.0408 54.0882 10.0266 54.1039 10.009 54.1149C9.99146 54.1259 9.97121 54.1319 9.95049 54.1321Z"
        fill="#D5DADD" />
    <path
        d="M12.6811 43.6523L12.1749 44.3274C12.1651 44.3407 12.159 44.3562 12.157 44.3726C12.155 44.389 12.1572 44.4056 12.1635 44.4208C12.1697 44.4361 12.1798 44.4495 12.1928 44.4597C12.2057 44.4699 12.221 44.4767 12.2373 44.4792L13.1519 44.648C13.168 44.6504 13.1844 44.6487 13.1996 44.6431C13.2148 44.6374 13.2284 44.628 13.239 44.6157C13.2496 44.6034 13.257 44.5886 13.2603 44.5727C13.2637 44.5568 13.2629 44.5404 13.2582 44.5248L13.0237 43.703"
        fill="#F58B00" />
    <path
        d="M63.3474 12.8363C61.4965 16.3298 54.1434 18.2744 52.92 18.5062C52.8272 18.5023 52.7361 18.4793 52.6527 18.4384C52.5693 18.3976 52.4952 18.3399 52.4352 18.269C51.1349 14.7514 49.3216 10.2882 51.1916 6.42864C53.0616 2.56908 57.3739 1.12047 60.8323 2.95302C64.2906 4.78558 65.3548 9.04953 63.3474 12.8363Z"
        fill="#5D36FF" />
    <path
        d="M52.7685 5.35246C52.725 5.33996 52.6855 5.31627 52.6541 5.28374C52.6071 5.23436 52.5815 5.16837 52.5829 5.10018C52.5843 5.032 52.6127 4.96715 52.6618 4.91978C52.8281 4.75819 53.0062 4.60907 53.1945 4.47361C53.2224 4.45419 53.2539 4.44048 53.2872 4.43327C53.3204 4.42606 53.3548 4.4255 53.3883 4.43161C53.4217 4.43772 53.4537 4.45039 53.4822 4.46889C53.5108 4.48739 53.5354 4.51136 53.5547 4.53941C53.5739 4.56748 53.5874 4.59906 53.5943 4.63235C53.6013 4.66563 53.6016 4.69996 53.5952 4.73336C53.5889 4.76677 53.576 4.79859 53.5573 4.82701C53.5387 4.85543 53.5146 4.87988 53.4864 4.89896C53.3215 5.02172 53.1651 5.15555 53.0183 5.29954C52.9848 5.32926 52.9442 5.34977 52.9004 5.35904C52.8566 5.36832 52.8111 5.36605 52.7685 5.35246Z"
        fill="#3B0AC6" />
    <path
        d="M43.8923 32.4656C43.8648 32.4571 43.8397 32.4423 43.8189 32.4224C43.8027 32.4064 43.7899 32.3873 43.7811 32.3663C43.7723 32.3453 43.7678 32.3227 43.7678 32.2999C43.7677 32.2772 43.7722 32.2546 43.7809 32.2335C43.7896 32.2125 43.8023 32.1934 43.8184 32.1773C43.9841 32.008 44.0631 31.8589 44.043 31.7534C44.023 31.6478 43.9789 31.651 43.8908 31.5846C43.7525 31.501 43.6529 31.3662 43.6137 31.2094C43.6024 31.1257 43.6101 31.0405 43.6362 30.9601C43.6622 30.8797 43.7059 30.8061 43.7641 30.7448C43.8505 30.6258 43.9228 30.4971 43.9794 30.3613C44.0256 30.2513 44.0511 30.1338 44.0547 30.0146C44.0577 29.8971 44.0802 29.7808 44.1211 29.6706C44.2234 29.3965 44.3033 29.1346 44.3876 28.8579C44.4718 28.5811 44.5409 28.3376 44.6532 28.0206C44.9482 27.2835 45.2893 26.5656 45.6744 25.8712C45.8209 25.6323 45.9455 25.3806 46.0469 25.1193C46.2148 24.3395 47.4083 23.5334 48.2799 22.9421C48.5152 22.798 48.7416 22.6399 48.958 22.4687C50.0052 21.4955 51.0016 20.4688 51.9432 19.393C51.9737 19.3588 52.0165 19.3381 52.0622 19.3354C52.1079 19.3327 52.1528 19.3483 52.1871 19.3787C52.204 19.3935 52.2178 19.4115 52.2277 19.4317C52.2376 19.4518 52.2434 19.4738 52.2448 19.4962C52.2462 19.5187 52.2431 19.5412 52.2358 19.5624C52.2285 19.5837 52.217 19.6032 52.2021 19.6201C51.2532 20.706 50.2487 21.7419 49.1925 22.7236C48.9675 22.9076 48.732 23.0782 48.4872 23.2347C47.7104 23.7597 46.5391 24.5454 46.3978 25.1985C46.2893 25.4981 46.1496 25.7855 45.9809 26.0558C45.6111 26.7296 45.2813 27.4245 44.9932 28.137C44.8856 28.4473 44.8057 28.7092 44.7312 28.9619C44.6567 29.2146 44.5691 29.5119 44.4581 29.7969C44.4265 29.8782 44.4102 29.9647 44.4099 30.052C44.403 30.2075 44.3688 30.3606 44.3089 30.5042C44.2435 30.6687 44.1578 30.8243 44.0538 30.9676C43.9698 31.0882 43.949 31.1225 43.9588 31.1712C43.9687 31.2198 44.0187 31.2696 44.1051 31.3327C44.2358 31.4123 44.3339 31.5357 44.3821 31.681C44.3946 31.8203 44.3722 31.9606 44.3169 32.0891C44.2617 32.2176 44.1753 32.3303 44.0655 32.417C44.0439 32.4402 44.0163 32.457 43.9857 32.4656C43.9552 32.4742 43.9229 32.4742 43.8923 32.4656Z"
        fill="#D5DADD" />
    <path
        d="M52.4385 18.2623L51.4032 19.0342C51.3831 19.0495 51.3673 19.0697 51.3573 19.0929C51.3473 19.1161 51.3434 19.1414 51.346 19.1665C51.3486 19.1916 51.3577 19.2156 51.3722 19.2362C51.3868 19.2568 51.4064 19.2734 51.4291 19.2842L52.6988 19.9277C52.7214 19.9382 52.7462 19.9429 52.771 19.9412C52.7958 19.9395 52.8198 19.9315 52.8407 19.9181C52.8616 19.9046 52.8788 19.8861 52.8906 19.8642C52.9024 19.8423 52.9085 19.8178 52.9082 19.7929L52.9195 18.4848"
        fill="#5D36FF" />
    <path
        d="M85.0367 87.471C84.9478 87.4448 84.8729 87.3843 84.8285 87.3029C84.7842 87.2214 84.774 87.1257 84.8002 87.0368C84.9373 86.5716 84.927 86.2275 84.7874 86.0629C84.6478 85.8983 84.5724 85.9349 84.3439 85.9322C84.0149 85.9155 83.7052 85.7716 83.4805 85.5307C83.3792 85.3907 83.3104 85.2299 83.2791 85.06C83.2478 84.8901 83.2549 84.7153 83.2997 84.5485C83.341 84.2514 83.3448 83.9503 83.311 83.6523C83.2888 83.4102 83.2205 83.1746 83.11 82.9581C83.0014 82.7542 82.9273 82.5337 82.8908 82.3056C82.8157 81.7298 82.8949 81.1445 83.1203 80.6094C82.6751 80.0926 82.3727 79.4684 82.2431 78.7987C82.0662 77.7236 82.4821 76.6115 82.913 75.4686C82.9481 75.3496 82.9816 75.236 83.0135 75.1278C83.2168 74.6767 83.3393 74.1935 83.3755 73.7001C83.3989 73.2306 83.3383 72.7608 83.1966 72.3127C82.6519 70.4707 83.6567 67.1217 84.4587 64.7595L84.4843 64.6729C85.4155 61.9096 86.2007 59.0992 86.8366 56.2534C86.8423 56.2038 86.8583 56.156 86.8837 56.113C86.9091 56.07 86.9433 56.0329 86.984 56.004C87.0247 55.9751 87.071 55.9552 87.1199 55.9454C87.1689 55.9356 87.2193 55.9362 87.268 55.9473C87.3167 55.9583 87.3625 55.9794 87.4024 56.0093C87.4424 56.0393 87.4756 56.0773 87.4999 56.1209C87.5242 56.1645 87.539 56.2127 87.5434 56.2624C87.5478 56.3121 87.5417 56.3622 87.5255 56.4094C86.8827 59.2787 86.0906 62.1125 85.1524 64.8993L85.146 64.9209C83.9541 68.4264 83.5329 70.8127 83.8838 72.0155C84.0586 72.5478 84.1327 73.108 84.1024 73.6674C84.0656 74.2352 83.9274 74.7918 83.6944 75.3109C83.6625 75.4191 83.6306 75.5273 83.5971 75.6409C83.171 76.7676 82.8025 77.7584 82.9563 78.6327C83.0377 79.0839 83.2218 79.5103 83.4944 79.8789C83.7945 79.4217 84.2476 79.0863 84.7726 78.9329C85.4556 78.7697 86.3564 78.9646 86.624 79.5726C86.689 79.743 86.7145 79.9259 86.6986 80.1076C86.6827 80.2893 86.6259 80.465 86.5324 80.6215C86.428 80.8639 86.2685 81.0784 86.0665 81.2481C85.8644 81.4178 85.6255 81.5379 85.3688 81.5987C85.112 81.6596 84.8447 81.6596 84.588 81.5987C84.3313 81.5377 84.0924 81.4177 83.8904 81.248L83.7017 81.11C83.5991 81.4398 83.5687 81.7877 83.6127 82.1303C83.6322 82.2986 83.684 82.4616 83.7651 82.6103C83.9078 82.8954 83.9961 83.2045 84.0255 83.5219C84.064 83.8728 84.0602 84.2269 84.0144 84.5769C83.9802 84.8725 83.9795 84.9546 84.0447 85.0327C84.1099 85.1107 84.2451 85.1505 84.464 85.1856C84.7947 85.2007 85.1066 85.3432 85.3344 85.5833C85.4945 85.8196 85.5922 86.0926 85.6184 86.3769C85.6446 86.6611 85.5985 86.9474 85.4843 87.209C85.458 87.2985 85.3975 87.374 85.316 87.4193C85.2344 87.4645 85.1384 87.4759 85.0485 87.4509L85.0367 87.471ZM83.9838 80.4524C84.0766 80.5373 84.1754 80.6155 84.2793 80.6865C84.5354 80.8913 84.8617 80.9875 85.188 80.9543C85.3414 80.9036 85.483 80.8225 85.6043 80.7158C85.7257 80.6092 85.8243 80.4791 85.8942 80.3335C85.9774 80.1983 86.0062 80.0366 85.9746 79.881C85.8385 79.7531 85.6707 79.664 85.4886 79.6227C85.3064 79.5814 85.1166 79.5895 84.9386 79.6462C84.5271 79.7795 84.1842 80.069 83.9838 80.4524Z"
        fill="#D5DADD" />
    <path
        d="M109.385 36.9775C106.694 45.3679 91.2841 52.5138 88.7103 53.5072C88.5052 53.5341 88.2967 53.5177 88.0983 53.4593C87.8999 53.4008 87.7159 53.3014 87.5582 53.1676C83.324 45.9521 77.5965 36.8619 80.1908 27.6612C82.7852 18.4605 91.6874 13.5884 99.9799 16.2501C108.272 18.9118 112.315 27.8524 109.385 36.9775Z"
        fill="#F58B00" />
    <path
        d="M87.561 53.1621L85.6029 55.2777C85.5641 55.3192 85.5367 55.3701 85.5235 55.4254C85.5104 55.4807 85.5118 55.5385 85.5278 55.593C85.5438 55.6476 85.5737 55.697 85.6146 55.7365C85.6555 55.776 85.706 55.8041 85.7611 55.8181L88.8063 56.7157C88.8601 56.7303 88.9167 56.7308 88.9707 56.7173C89.0248 56.7039 89.0745 56.6768 89.1151 56.6387C89.1558 56.6006 89.1861 56.5529 89.2031 56.4998C89.2201 56.4468 89.2232 56.3902 89.2123 56.3356L88.7313 53.46"
        fill="#F58B00" />
    <path
        d="M85.5417 21.7717C85.4922 21.7559 85.4456 21.7322 85.4036 21.7016C85.3687 21.6705 85.3403 21.6328 85.32 21.5908C85.2997 21.5487 85.2879 21.503 85.2853 21.4564C85.2827 21.4097 85.2892 21.363 85.3047 21.3189C85.3201 21.2748 85.3441 21.2342 85.3753 21.1994C86.7045 19.7906 88.3024 18.6623 90.0747 17.8811C90.1168 17.8542 90.164 17.8365 90.2134 17.8292C90.2627 17.8218 90.3131 17.8249 90.3612 17.8383C90.4092 17.8517 90.454 17.8751 90.4924 17.9069C90.5308 17.9388 90.5621 17.9783 90.5842 18.0231C90.6064 18.0678 90.6188 18.1167 90.6208 18.1666C90.6227 18.2164 90.6142 18.2662 90.5956 18.3125C90.5771 18.3589 90.549 18.4008 90.5132 18.4355C90.4774 18.4703 90.4346 18.4971 90.3878 18.5142C88.6961 19.2597 87.1701 20.3349 85.8988 21.677C85.8544 21.7251 85.7973 21.7596 85.734 21.7764C85.6708 21.7931 85.6041 21.7915 85.5417 21.7717Z"
        fill="#CC7400" />
    <path
        d="M83.1948 24.4544L83.0812 24.4209C83.0433 24.3939 83.0112 24.3597 82.9867 24.3201C82.9622 24.2806 82.9458 24.2366 82.9385 24.1906C82.9313 24.1447 82.9333 24.0978 82.9444 24.0526C82.9555 24.0074 82.9755 23.9649 83.0032 23.9276C83.3001 23.5192 83.6245 23.1316 83.9742 22.7675C84.041 22.7022 84.131 22.6661 84.2244 22.6672C84.3178 22.6682 84.4069 22.7064 84.4722 22.7732C84.5375 22.84 84.5736 22.93 84.5725 23.0234C84.5714 23.1168 84.5333 23.2059 84.4665 23.2712C84.1396 23.6046 83.8379 23.9618 83.5637 24.3397C83.519 24.3913 83.4607 24.4293 83.3955 24.4496C83.3304 24.4699 83.2608 24.4715 83.1948 24.4544Z"
        fill="#CC7400" />
</svg>
    