<svg width="160" height="160" viewBox="0 0 160 160" fill="none" xmlns="http://www.w3.org/2000/svg">
    <path
        d="M32.285 20.0517L15.9505 118.583C15.226 122.953 18.1789 127.084 22.5459 127.809L91.0229 139.179C95.39 139.904 99.5175 136.949 100.242 132.578L116.577 34.047C117.301 29.6766 114.348 25.5459 109.981 24.8208L41.5042 13.4512C37.1371 12.7262 33.0096 15.6813 32.285 20.0517Z"
        fill="#FF7F4C" />
    <path
        d="M89.4947 18.126H23.0173C18.5905 18.126 15.002 21.7173 15.002 26.1475V122.035C15.002 126.465 18.5905 130.056 23.0173 130.056H89.4947C93.9214 130.056 97.51 126.465 97.51 122.035V26.1475C97.51 21.7173 93.9214 18.126 89.4947 18.126Z"
        fill="white" />
    <path
        d="M89.4946 131.059H23.0173C20.6257 131.059 18.3322 130.108 16.6411 128.416C14.95 126.723 14 124.428 14 122.035V26.1475C14 23.7541 14.95 21.4588 16.6411 19.7664C18.3322 18.0741 20.6257 17.1233 23.0173 17.1233H89.4946C91.8862 17.1233 94.1797 18.0741 95.8708 19.7664C97.5619 21.4588 98.5119 23.7541 98.5119 26.1475V122.035C98.5119 124.428 97.5619 126.723 95.8708 128.416C94.1797 130.108 91.8862 131.059 89.4946 131.059ZM23.0173 19.1287C21.1572 19.1287 19.3733 19.8681 18.058 21.1844C16.7427 22.5007 16.0038 24.286 16.0038 26.1475V122.035C16.0038 123.896 16.7427 125.681 18.058 126.998C19.3733 128.314 21.1572 129.054 23.0173 129.054H89.4946C91.3547 129.054 93.1386 128.314 94.4539 126.998C95.7691 125.681 96.5081 123.896 96.5081 122.035V26.1475C96.5081 24.286 95.7691 22.5007 94.4539 21.1844C93.1386 19.8681 91.3547 19.1287 89.4946 19.1287H23.0173Z"
        fill="#00144A" />
    <path
        d="M76.6666 76C76.6666 87.0457 67.7123 96 56.6666 96C45.6209 96 36.6666 87.0457 36.6666 76C36.6666 64.9543 45.6209 56 56.6666 56C67.7123 56 76.6666 64.9543 76.6666 76Z"
        fill="#DF1278" />
    <path fill-rule="evenodd" clip-rule="evenodd"
        d="M64.2811 71.4116C65.0616 70.6311 65.0616 69.3658 64.2811 68.5853C63.5007 67.8049 62.2353 67.8049 61.4549 68.5853L56.7666 73.2737L52.0782 68.5853C51.2978 67.8049 50.0324 67.8049 49.252 68.5853C48.4715 69.3658 48.4715 70.6311 49.252 71.4116L53.9403 76.0999L49.252 80.7883C48.4715 81.5687 48.4715 82.8341 49.252 83.6145C50.0324 84.395 51.2978 84.395 52.0782 83.6145L56.7666 78.9262L61.4549 83.6145C62.2353 84.395 63.5007 84.395 64.2811 83.6145C65.0616 82.8341 65.0616 81.5687 64.2811 80.7883L59.5928 76.0999L64.2811 71.4116Z"
        fill="white" />
    <path
        d="M144.85 28.8836C144.653 28.6476 144.396 28.4691 144.106 28.367C143.816 28.2648 143.503 28.2427 143.202 28.303L135.992 29.5501C134.799 29.7558 134.328 30.852 134.489 31.7867C134.541 32.1716 134.717 32.5292 134.99 32.8058C135.263 33.0823 135.618 33.2629 136.002 33.3202C136.188 33.3424 136.377 33.3363 136.562 33.302L143.772 32.0549C144.089 32.0066 144.388 31.8735 144.636 31.6696C144.884 31.4656 145.072 31.1984 145.181 30.8962C145.302 30.5604 145.335 30.1992 145.277 29.847C145.219 29.4948 145.072 29.1632 144.85 28.8836Z"
        fill="#A9B4BE" />
    <path
        d="M117.444 0.0844665C117.236 0.013539 117.015 -0.0131697 116.796 0.00604575C116.576 0.0252612 116.363 0.0899774 116.171 0.196065C115.978 0.302152 115.809 0.44728 115.676 0.62218C115.542 0.797081 115.446 0.997914 115.395 1.21186L113.408 8.0569C113.337 8.30325 113.317 8.56121 113.347 8.81569C113.377 9.07018 113.458 9.3161 113.584 9.53909C113.71 9.76209 113.88 9.9577 114.082 10.1145C114.285 10.2713 114.517 10.3861 114.765 10.4523C114.866 10.4824 114.97 10.5042 115.075 10.5174C115.461 10.5717 115.855 10.4791 116.177 10.2579C116.498 10.0367 116.726 9.70286 116.814 9.32228L118.798 2.47984C118.869 2.23366 118.89 1.97579 118.86 1.72131C118.831 1.46684 118.75 1.22089 118.624 0.997832C118.498 0.774779 118.329 0.579112 118.126 0.422281C117.923 0.265449 117.692 0.150604 117.444 0.0844665Z"
        fill="#A9B4BE" />
    <path
        d="M135.161 9.35357C134.921 9.33799 134.68 9.37152 134.454 9.4521C134.227 9.53268 134.02 9.65862 133.843 9.82222L125.865 17.0813C125.509 17.4088 125.293 17.8613 125.263 18.3441C125.233 18.8269 125.391 19.3027 125.704 19.6719C125.995 20.0132 126.404 20.2325 126.849 20.2864C127.106 20.317 127.367 20.2919 127.613 20.2129C127.859 20.1338 128.085 20.0026 128.276 19.8281L136.255 12.5691C136.613 12.24 136.829 11.7848 136.859 11.2993C136.889 10.8138 136.729 10.3356 136.413 9.96543C136.257 9.78436 136.065 9.63682 135.85 9.53168C135.634 9.42654 135.4 9.36596 135.161 9.35357Z"
        fill="#A9B4BE" />
    <path
        d="M56.6667 160C75.8125 160 91.3333 158.209 91.3333 156C91.3333 153.791 75.8125 152 56.6667 152C37.5208 152 22 153.791 22 156C22 158.209 37.5208 160 56.6667 160Z"
        fill="#D5DADD" />
</svg>
    