<svg width="105" height="24" viewBox="0 0 105 24" fill="none" xmlns="http://www.w3.org/2000/svg">
    <rect width="105" height="24" rx="12" fill="#053354" />
    <circle cx="12.5345" cy="11.5345" r="7.93448" stroke="white" stroke-width="1.2" />
    <path
        d="M18 11.5C18 11.8029 17.9755 12.1001 17.9284 12.3897M12.5 17C14.6986 17 16.5958 15.71 17.4762 13.8456M7 11.5C7 11.1688 7.02927 10.8445 7.08537 10.5294M12.5 6C10.3991 6 8.57328 7.17797 7.64706 8.90947"
        stroke="white" stroke-width="1.2" stroke-linecap="round" />
    <circle cx="12.5" cy="11.5" r="2.5" stroke="white" stroke-width="1.2" />
    <path
        d="M29.3281 7.74414H32.4453C33.082 7.74414 33.6172 7.84766 34.0508 8.05469C34.4844 8.26172 34.8086 8.55273 35.0234 8.92773C35.2422 9.30273 35.3516 9.74414 35.3516 10.252C35.3516 10.748 35.2441 11.1914 35.0293 11.582C34.8145 11.9727 34.4941 12.2812 34.0684 12.5078C33.6426 12.7305 33.123 12.8418 32.5098 12.8418H30.4414V16H29.3281V7.74414ZM32.3516 11.834C32.9844 11.834 33.457 11.7012 33.7695 11.4355C34.082 11.166 34.2383 10.7754 34.2383 10.2637C34.2383 9.77148 34.0742 9.39844 33.7461 9.14453C33.4219 8.89062 32.9414 8.76367 32.3047 8.76367H30.4414V11.834H32.3516ZM38.2344 16.1172C37.5898 16.1172 37.0977 15.9512 36.7578 15.6191C36.4219 15.2832 36.2539 14.8223 36.2539 14.2363C36.2539 13.5293 36.5176 13.0234 37.0449 12.7188C37.5723 12.4102 38.2285 12.248 39.0137 12.2324L40.2734 12.209V11.834C40.2734 11.3965 40.1602 11.0547 39.9336 10.8086C39.7109 10.5586 39.3926 10.4336 38.9785 10.4336C38.6426 10.4336 38.3379 10.5039 38.0645 10.6445C37.791 10.7852 37.4922 11.0312 37.168 11.3828L36.5059 10.6973C36.7793 10.3613 37.125 10.0859 37.543 9.87109C37.9648 9.65234 38.4512 9.54297 39.002 9.54297C39.4902 9.54297 39.9082 9.63672 40.2559 9.82422C40.6035 10.0117 40.8672 10.2695 41.0469 10.5977C41.2266 10.9258 41.3164 11.3027 41.3164 11.7285V14.6582C41.3164 15.1582 41.332 15.6055 41.3633 16H40.3438C40.3125 15.7148 40.2969 15.4023 40.2969 15.0625H40.2734C40.0352 15.4102 39.7598 15.6738 39.4473 15.8535C39.1387 16.0293 38.7344 16.1172 38.2344 16.1172ZM38.4746 15.2324C38.8496 15.2324 39.1719 15.1582 39.4414 15.0098C39.7148 14.8574 39.9219 14.6602 40.0625 14.418C40.2031 14.1719 40.2734 13.9121 40.2734 13.6387V13.0352L39.2773 13.0586C38.6953 13.0742 38.2266 13.1699 37.8711 13.3457C37.5195 13.5176 37.3438 13.8184 37.3438 14.248C37.3438 14.5488 37.4434 14.7891 37.6426 14.9688C37.8457 15.1445 38.123 15.2324 38.4746 15.2324ZM42.1953 9.66602H43.3262L44.6797 13.7793C44.7891 14.0879 44.9258 14.5195 45.0898 15.0742C45.1836 14.7422 45.3262 14.3145 45.5176 13.791L46.9238 9.66602H48.0547L45.7344 16H44.4395L42.1953 9.66602ZM51.5 16.1172C50.8828 16.1172 50.3555 15.9805 49.918 15.707C49.4844 15.4297 49.1543 15.043 48.9277 14.5469C48.7051 14.0469 48.5938 13.4668 48.5938 12.8066C48.5938 12.1152 48.7129 11.5254 48.9512 11.0371C49.1934 10.5449 49.5234 10.1738 49.9414 9.92383C50.3594 9.66992 50.8301 9.54297 51.3535 9.54297C51.9902 9.54297 52.5078 9.69336 52.9062 9.99414C53.3047 10.291 53.5918 10.6699 53.7676 11.1309C53.9434 11.5918 54.0312 12.082 54.0312 12.6016C54.0312 12.7344 54.0234 12.9023 54.0078 13.1055H49.707C49.707 13.4453 49.7715 13.7773 49.9004 14.1016C50.0332 14.4219 50.2344 14.6875 50.5039 14.8984C50.7734 15.1055 51.1055 15.209 51.5 15.209C51.7461 15.209 51.9688 15.1758 52.168 15.1094C52.3711 15.0391 52.5527 14.9492 52.7129 14.8398C52.877 14.7305 53.0566 14.5898 53.252 14.418L53.8262 15.1738C53.627 15.3418 53.4297 15.4902 53.2344 15.6191C53.0391 15.748 52.791 15.8633 52.4902 15.9648C52.1934 16.0664 51.8633 16.1172 51.5 16.1172ZM52.9473 12.2207C52.8965 11.6191 52.7383 11.1738 52.4727 10.8848C52.207 10.5918 51.834 10.4453 51.3535 10.4453C51.0918 10.4453 50.8398 10.5078 50.5977 10.6328C50.3594 10.7539 50.1582 10.9473 49.9941 11.2129C49.834 11.4785 49.7441 11.8145 49.7246 12.2207H52.9473ZM57.6289 16.1172C56.7812 16.1172 56.1426 15.8262 55.7129 15.2441C55.2871 14.6621 55.0742 13.8652 55.0742 12.8535C55.0742 12.1855 55.1738 11.6035 55.373 11.1074C55.5723 10.6113 55.8711 10.2266 56.2695 9.95312C56.6719 9.67969 57.1621 9.54297 57.7402 9.54297C58.1465 9.54297 58.5098 9.625 58.8301 9.78906C59.1504 9.94922 59.3945 10.1953 59.5625 10.5273H59.5742C59.5664 10.4414 59.5625 10.1855 59.5625 9.75977V7.29883H60.6172V14.6934C60.6172 14.9668 60.6211 15.2227 60.6289 15.4609C60.6367 15.6992 60.6445 15.8789 60.6523 16H59.6445C59.6289 15.9336 59.6152 15.8066 59.6035 15.6191C59.5918 15.4316 59.5859 15.2422 59.5859 15.0508H59.5625C59.375 15.4062 59.1133 15.6738 58.7773 15.8535C58.4414 16.0293 58.0586 16.1172 57.6289 16.1172ZM57.7871 15.1855C58.334 15.1855 58.7656 14.9922 59.082 14.6055C59.4023 14.2188 59.5625 13.5996 59.5625 12.748C59.5625 11.9395 59.4082 11.3535 59.0996 10.9902C58.791 10.627 58.3809 10.4453 57.8691 10.4453C56.7402 10.4453 56.1758 11.2363 56.1758 12.8184C56.1758 13.5684 56.3047 14.1504 56.5625 14.5645C56.8242 14.9785 57.2324 15.1855 57.7871 15.1855ZM65.75 7.74414H68.9199C69.5371 7.74414 70.0625 7.8418 70.4961 8.03711C70.9297 8.22852 71.2578 8.50781 71.4805 8.875C71.707 9.23828 71.8203 9.67383 71.8203 10.1816C71.8203 10.5488 71.748 10.8984 71.6035 11.2305C71.4629 11.5586 71.2422 11.8418 70.9414 12.0801C70.6406 12.3184 70.2617 12.4805 69.8047 12.5664L72.1602 16H70.8594L68.7148 12.6895H66.8633V16H65.75V7.74414ZM68.8438 11.6934C69.2617 11.6934 69.6094 11.6289 69.8867 11.5C70.168 11.3672 70.375 11.1895 70.5078 10.9668C70.6406 10.7402 70.707 10.4824 70.707 10.1934C70.707 9.7207 70.541 9.36523 70.209 9.12695C69.877 8.88477 69.4062 8.76367 68.7969 8.76367H66.8633V11.6934H68.8438ZM76.0215 16.1172C75.4395 16.1172 74.9375 15.9824 74.5156 15.7129C74.0938 15.4395 73.7715 15.0547 73.5488 14.5586C73.3262 14.0625 73.2148 13.4824 73.2148 12.8184C73.2148 12.166 73.3223 11.5938 73.5371 11.1016C73.752 10.6094 74.0723 10.2266 74.498 9.95312C74.9238 9.67969 75.4434 9.54297 76.0566 9.54297C77.0059 9.54297 77.7129 9.83594 78.1777 10.4219C78.6465 11.0039 78.8809 11.8027 78.8809 12.8184C78.8809 13.4824 78.7715 14.0625 78.5527 14.5586C78.334 15.0547 78.0098 15.4395 77.5801 15.7129C77.1504 15.9824 76.6309 16.1172 76.0215 16.1172ZM76.0098 15.2207C76.5684 15.2207 77.002 15.0234 77.3105 14.6289C77.6191 14.2305 77.7734 13.627 77.7734 12.8184C77.7734 12.0215 77.625 11.4277 77.3281 11.0371C77.0352 10.6426 76.6152 10.4453 76.0684 10.4453C75.5176 10.4453 75.0879 10.6465 74.7793 11.0488C74.4707 11.4473 74.3164 12.0371 74.3164 12.8184C74.3164 13.3496 74.3887 13.7949 74.5332 14.1543C74.6816 14.5137 74.8828 14.7812 75.1367 14.957C75.3906 15.1328 75.6816 15.2207 76.0098 15.2207ZM81.875 16.1172C81.2305 16.1172 80.7383 15.9512 80.3984 15.6191C80.0625 15.2832 79.8945 14.8223 79.8945 14.2363C79.8945 13.5293 80.1582 13.0234 80.6855 12.7188C81.2129 12.4102 81.8691 12.248 82.6543 12.2324L83.9141 12.209V11.834C83.9141 11.3965 83.8008 11.0547 83.5742 10.8086C83.3516 10.5586 83.0332 10.4336 82.6191 10.4336C82.2832 10.4336 81.9785 10.5039 81.7051 10.6445C81.4316 10.7852 81.1328 11.0312 80.8086 11.3828L80.1465 10.6973C80.4199 10.3613 80.7656 10.0859 81.1836 9.87109C81.6055 9.65234 82.0918 9.54297 82.6426 9.54297C83.1309 9.54297 83.5488 9.63672 83.8965 9.82422C84.2441 10.0117 84.5078 10.2695 84.6875 10.5977C84.8672 10.9258 84.957 11.3027 84.957 11.7285V14.6582C84.957 15.1582 84.9727 15.6055 85.0039 16H83.9844C83.9531 15.7148 83.9375 15.4023 83.9375 15.0625H83.9141C83.6758 15.4102 83.4004 15.6738 83.0879 15.8535C82.7793 16.0293 82.375 16.1172 81.875 16.1172ZM82.1152 15.2324C82.4902 15.2324 82.8125 15.1582 83.082 15.0098C83.3555 14.8574 83.5625 14.6602 83.7031 14.418C83.8438 14.1719 83.9141 13.9121 83.9141 13.6387V13.0352L82.918 13.0586C82.3359 13.0742 81.8672 13.1699 81.5117 13.3457C81.1602 13.5176 80.9844 13.8184 80.9844 14.248C80.9844 14.5488 81.084 14.7891 81.2832 14.9688C81.4863 15.1445 81.7637 15.2324 82.1152 15.2324ZM88.8594 16.1172C88.0117 16.1172 87.373 15.8262 86.9434 15.2441C86.5176 14.6621 86.3047 13.8652 86.3047 12.8535C86.3047 12.1855 86.4043 11.6035 86.6035 11.1074C86.8027 10.6113 87.1016 10.2266 87.5 9.95312C87.9023 9.67969 88.3926 9.54297 88.9707 9.54297C89.377 9.54297 89.7402 9.625 90.0605 9.78906C90.3809 9.94922 90.625 10.1953 90.793 10.5273H90.8047C90.7969 10.4414 90.793 10.1855 90.793 9.75977V7.29883H91.8477V14.6934C91.8477 14.9668 91.8516 15.2227 91.8594 15.4609C91.8672 15.6992 91.875 15.8789 91.8828 16H90.875C90.8594 15.9336 90.8457 15.8066 90.834 15.6191C90.8223 15.4316 90.8164 15.2422 90.8164 15.0508H90.793C90.6055 15.4062 90.3438 15.6738 90.0078 15.8535C89.6719 16.0293 89.2891 16.1172 88.8594 16.1172ZM89.0176 15.1855C89.5645 15.1855 89.9961 14.9922 90.3125 14.6055C90.6328 14.2188 90.793 13.5996 90.793 12.748C90.793 11.9395 90.6387 11.3535 90.3301 10.9902C90.0215 10.627 89.6113 10.4453 89.0996 10.4453C87.9707 10.4453 87.4062 11.2363 87.4062 12.8184C87.4062 13.5684 87.5352 14.1504 87.793 14.5645C88.0547 14.9785 88.4629 15.1855 89.0176 15.1855Z"
        fill="white" />
</svg>
    