<svg width="129" height="129" viewBox="0 0 129 128" fill="none" xmlns="http://www.w3.org/2000/svg">
  <mask id="mask0_1240_2446" style="mask-type:alpha" maskUnits="userSpaceOnUse" x="0" y="0" width="129" height="128">
    <circle cx="64.5" cy="64" r="64" fill="#EBF8FF"/>
  </mask>
  <g mask="url(#mask0_1240_2446)">
    <path d="M191.268 3.88174e-06H7.7218C6.52541 -0.00110082 5.34053 0.233597 4.23488 0.690672C3.12924 1.14775 2.12452 1.81825 1.27815 2.66384C0.431776 3.50943 -0.239646 4.51352 -0.697742 5.61874C-1.15584 6.72396 -1.39162 7.90863 -1.39162 9.10503V116.995C-1.39162 119.412 -0.431467 121.73 1.27763 123.439C2.98673 125.148 5.30477 126.108 7.7218 126.108H191.268C193.685 126.108 196.003 125.148 197.713 123.439C199.422 121.73 200.382 119.412 200.382 116.995V9.10503C200.382 7.90863 200.146 6.72396 199.688 5.61874C199.23 4.51352 198.558 3.50943 197.712 2.66384C196.866 1.81825 195.861 1.14775 194.755 0.690672C193.65 0.233597 192.465 -0.00110082 191.268 3.88174e-06Z" fill="#EBF8FF"/>
    <path d="M-1.39159 45.7144L6.9052 38.7482C23.1777 25.0854 43.5767 17.2999 64.8143 16.6464L68.0238 16.5476C71.3443 16.4455 74.6677 16.6059 77.9629 17.0274L82.5414 17.613C111.929 21.3718 140.022 31.9808 164.558 48.5851L200.382 72.8277V96.7882H-1.39162L-1.39159 45.7144Z" fill="#D1EFFF"/>
    <path d="M-1.39162 85.7536L36.5265 80.861C56.7244 78.2548 77.2106 78.9274 97.1941 82.8527L122.345 87.793C132.392 89.7666 142.769 89.2636 152.579 86.3274L170.709 80.9006C179.171 78.3679 188.307 79.5008 195.893 84.0237L200.382 86.6995V97.1034H-1.39162V85.7536Z" fill="#B8E6FF"/>
    <ellipse cx="1.68144" cy="1.68145" rx="1.68144" ry="1.68145" transform="matrix(-1 0 0 1 10.1683 4.41357)" fill="#EBF8FF"/>
    <circle cx="1.26108" cy="1.26108" r="1.26108" transform="matrix(-1 0 0 1 88.7759 5.6748)" fill="#EBF8FF"/>
    <ellipse cx="0.840724" cy="0.840723" rx="0.840724" ry="0.840723" transform="matrix(-1 0 0 1 40.014 10.0886)" fill="#EBF8FF"/>
    <ellipse cx="0.840719" cy="0.840724" rx="0.840719" ry="0.840724" transform="matrix(-1 0 0 1 3.4425 21.4382)" fill="#EBF8FF"/>
    <path d="M8.77465 23.3301H29.4274C30.2656 23.3301 31.0956 23.4932 31.87 23.81C32.6444 24.1269 33.3481 24.5914 33.9408 25.1769C34.5335 25.7624 35.0037 26.4575 35.3245 27.2225C35.6453 27.9875 35.8103 28.8075 35.8103 29.6355C35.8103 30.4635 35.6453 31.2835 35.3245 32.0485C35.0037 32.8135 34.5335 33.5086 33.9408 34.0941C33.3481 34.6796 32.6444 35.1441 31.87 35.4609C31.0956 35.7778 30.2656 35.9409 29.4274 35.9409H8.77465C7.08177 35.9409 5.45821 35.2766 4.26117 34.0941C3.06413 32.9116 2.39163 31.3078 2.39163 29.6355C2.39163 27.9632 3.06413 26.3594 4.26117 25.1769C5.45821 23.9944 7.08177 23.3301 8.77465 23.3301Z" fill="#B8E6FF"/>
    <path d="M19.4939 17.0247H40.1466C40.9848 17.0247 41.8148 17.1878 42.5892 17.5046C43.3636 17.8215 44.0673 18.286 44.66 18.8715C45.2527 19.457 45.7229 20.1521 46.0437 20.9171C46.3645 21.6821 46.5296 22.502 46.5296 23.3301C46.5296 24.1581 46.3645 24.978 46.0437 25.7431C45.7229 26.5081 45.2527 27.2032 44.66 27.7887C44.0673 28.3742 43.3636 28.8386 42.5892 29.1555C41.8148 29.4724 40.9848 29.6355 40.1466 29.6355H19.4939C17.801 29.6355 16.1774 28.9712 14.9804 27.7887C13.7833 26.6062 13.1108 25.0024 13.1108 23.3301C13.1108 21.6578 13.7833 20.054 14.9804 18.8715C16.1774 17.689 17.801 17.0247 19.4939 17.0247Z" fill="#B8E6FF"/>
    <g clip-path="url(#clip0_1240_2446)">
      <path d="M58.27 34.7423C58.2116 34.5749 58.1959 34.3956 58.2242 34.2206C58.2526 34.0456 58.3241 33.8804 58.4323 33.7399C58.5406 33.5995 58.6821 33.4883 58.8441 33.4163C59.0062 33.3442 59.1836 33.3137 59.3604 33.3274L140.9 34.29C141.323 34.3154 141.728 34.4688 142.062 34.7298C142.395 34.9908 142.641 35.347 142.768 35.7512L161.7 106.041C161.759 106.211 161.776 106.392 161.748 106.569C161.721 106.747 161.65 106.915 161.542 107.058C161.435 107.201 161.293 107.316 161.13 107.391C160.967 107.467 160.788 107.501 160.609 107.491L80.0325 108.361C79.6115 108.348 79.2049 108.205 78.8684 107.951C78.532 107.698 78.2822 107.347 78.1532 106.946L58.27 34.7423Z" fill="#F58B00"/>
      <path d="M127.989 107.804C127.799 107.811 127.61 107.776 127.436 107.702C127.261 107.629 127.104 107.518 126.976 107.378C126.848 107.238 126.752 107.072 126.694 106.891C126.637 106.711 126.619 106.52 126.643 106.331L133.221 35.7397C133.266 35.3387 133.455 34.9679 133.754 34.6967C134.053 34.4256 134.441 34.2728 134.845 34.2668H140.9C141.321 34.2857 141.727 34.4339 142.061 34.6912C142.395 34.9485 142.642 35.3024 142.768 35.7049L161.7 105.995C161.759 106.164 161.776 106.346 161.748 106.523C161.721 106.7 161.65 106.868 161.542 107.012C161.435 107.155 161.293 107.27 161.13 107.345C160.967 107.421 160.788 107.455 160.609 107.445L127.989 107.804Z" fill="#CC7400"/>
      <path d="M100.565 113.603C100.402 113.606 100.242 113.553 100.113 113.452C97.0321 111.046 94.1248 108.426 91.4125 105.612C84.8582 98.8279 78.6519 89.8982 69.7776 68.3739L68.9655 66.414C64.4826 56.0424 60.6357 45.4075 57.4463 34.5683C57.4179 34.4754 57.4083 34.3778 57.4181 34.2811C57.4279 34.1845 57.4569 34.0908 57.5033 34.0055C57.5498 33.9202 57.6128 33.845 57.6886 33.7843C57.7645 33.7236 57.8516 33.6787 57.9451 33.6521C58.0388 33.6236 58.1372 33.6138 58.2347 33.6235C58.3321 33.6331 58.4267 33.662 58.5129 33.7083C58.5992 33.7547 58.6754 33.8176 58.7372 33.8936C58.799 33.9695 58.8453 34.0569 58.8732 34.1508C62.0459 44.9387 65.8734 55.5233 70.3344 65.8457L71.1464 67.8057C79.9628 89.1096 86.053 97.9582 92.4797 104.58C95.1432 107.342 97.996 109.915 101.018 112.281C101.095 112.341 101.159 112.415 101.207 112.5C101.255 112.585 101.286 112.679 101.298 112.776C101.31 112.873 101.303 112.971 101.276 113.065C101.25 113.16 101.206 113.248 101.145 113.324C101.077 113.413 100.989 113.484 100.888 113.532C100.787 113.58 100.677 113.605 100.565 113.603Z" fill="white"/>
      <path d="M11.0794 108.373C10.9117 108.375 10.7483 108.321 10.6155 108.218C10.4828 108.116 10.3885 107.972 10.3482 107.809C10.3078 107.646 10.3238 107.475 10.3933 107.322C10.4629 107.17 10.582 107.045 10.7314 106.969C26.6096 98.5277 39.8546 85.8763 49.0129 70.4035C49.0621 70.3186 49.1276 70.2443 49.2056 70.1849C49.2837 70.1255 49.3727 70.0821 49.4677 70.0573C49.5626 70.0325 49.6614 70.0268 49.7586 70.0404C49.8558 70.0541 49.9493 70.0868 50.0337 70.1368C50.2009 70.2401 50.3211 70.4046 50.3688 70.5952C50.4165 70.7858 50.3878 70.9875 50.2889 71.1573C41.0019 86.858 27.5684 99.6979 11.4622 108.268C11.3464 108.337 11.2141 108.373 11.0794 108.373Z" fill="white"/>
      <path d="M58.27 34.7421C58.0612 33.9535 57.7016 33.9535 57.4812 34.7421L37.2384 107.143C37.1774 107.309 37.1593 107.489 37.1858 107.664C37.2123 107.839 37.2826 108.005 37.3901 108.146C37.4976 108.287 37.6388 108.399 37.8009 108.471C37.9629 108.543 38.1405 108.573 38.3172 108.558L77.0859 108.384C77.2646 108.396 77.4436 108.364 77.6066 108.29C77.7696 108.216 77.9117 108.102 78.0199 107.959C78.1281 107.817 78.199 107.649 78.2263 107.472C78.2537 107.295 78.2365 107.115 78.1764 106.946L58.27 34.7421Z" fill="white"/>
      <path d="M50.7643 108.523C50.5829 108.529 50.4026 108.493 50.2378 108.417C50.073 108.341 49.9285 108.227 49.8156 108.085C49.7028 107.943 49.6249 107.776 49.5882 107.599C49.5515 107.421 49.557 107.237 49.6043 107.062L56.4254 73.5462C56.5878 72.746 56.843 72.746 57.0054 73.5462L63.5944 107.108C63.6417 107.283 63.6473 107.467 63.6106 107.645C63.5739 107.823 63.496 107.989 63.3832 108.131C63.2703 108.274 63.1257 108.387 62.961 108.463C62.7962 108.539 62.6158 108.576 62.4344 108.57L50.7643 108.523Z" fill="#00144A"/>
      <path d="M101.493 114.762C101.493 115.574 101.029 116.247 100.577 116.247C100.124 116.247 99.73 115.574 99.6836 114.762L99.382 108.964C99.3611 108.783 99.3775 108.6 99.43 108.426C99.4826 108.252 99.5703 108.09 99.6876 107.951C99.805 107.812 99.9496 107.699 100.112 107.617C100.275 107.536 100.453 107.489 100.635 107.479C100.814 107.489 100.99 107.536 101.15 107.616C101.31 107.697 101.452 107.81 101.567 107.949C101.681 108.087 101.766 108.248 101.815 108.421C101.864 108.593 101.877 108.774 101.853 108.952L101.493 114.762Z" fill="#00144A"/>
      <path d="M12.0769 109.556C12.0769 110.367 11.6129 111.04 11.1721 111.04C10.7313 111.04 10.3137 110.367 10.2672 109.556L9.96563 103.699C9.94649 103.519 9.96409 103.336 10.0173 103.163C10.0705 102.989 10.1583 102.828 10.2753 102.69C10.3924 102.551 10.5363 102.437 10.6984 102.356C10.8605 102.274 11.0374 102.226 11.2185 102.215C11.3988 102.226 11.5749 102.274 11.7359 102.356C11.8968 102.438 12.0394 102.552 12.1546 102.691C12.2698 102.83 12.3552 102.991 12.4057 103.165C12.4562 103.338 12.4707 103.52 12.4481 103.699L12.0769 109.556Z" fill="#00144A"/>
    </g>
    <path d="M70.7488 21.7773L65.7036 23.1716L71.234 23.3639L70.7488 21.7773Z" fill="#F58B00"/>
    <path d="M68.8569 24.0851L65.7036 23.1716L69.2935 23.2678L68.8569 24.0851Z" fill="#CC7400"/>
    <path d="M73.5936 35.2328H81.0228C82.7583 35.2328 83.6293 33.1547 82.4075 31.9359L77.118 26.6741L72.7305 22.3101C71.177 20.7646 68.5137 21.8527 68.5137 24.0366V30.1951C68.5135 31.5306 69.0486 32.8116 70.0012 33.7563C70.9538 34.701 72.246 35.2321 73.5936 35.2328Z" fill="#0070F2"/>
    <path opacity="0.5" d="M71.7961 23.7858C71.458 23.4507 71.4579 22.9075 71.7959 22.5725C72.1339 22.2376 72.682 22.2377 73.0201 22.5728L86.2425 35.677C86.5806 36.0121 86.5807 36.5553 86.2427 36.8902C85.9048 37.2252 85.3567 37.2251 85.0186 36.89L71.7961 23.7858Z" fill="white"/>
    <path d="M73.5966 24.6438L71.6808 26.5425C71.1614 27.0572 70.8696 27.7553 70.8696 28.4833C70.8696 29.2112 71.1614 29.9093 71.6808 30.424L73.4283 32.1559C74.4558 33.1745 75.8496 33.7469 77.3029 33.7473C78.7563 33.7476 80.1503 33.1759 81.1783 32.1577L73.5966 24.6438Z" fill="#00144A"/>
    <path d="M82.4042 31.9359L77.1147 26.674L72.7271 22.31C71.8943 21.4814 72.677 23.3282 71.7875 23.7771C71.6288 23.6156 71.5407 23.3987 71.5422 23.1733C71.5437 22.9479 71.6346 22.7322 71.7954 22.5727C71.9578 22.412 72.1779 22.3217 72.4073 22.3217C72.6368 22.3217 72.8569 22.412 73.0193 22.5727L86.2425 35.6777C86.4046 35.8386 86.4957 36.0567 86.4957 36.2842C86.4957 36.5116 86.4046 36.7297 86.2425 36.8906C86.1621 36.9703 86.0666 37.0335 85.9615 37.0766C85.8565 37.1198 85.7439 37.142 85.6302 37.142C85.5165 37.142 85.4039 37.1198 85.2989 37.0766C85.1938 37.0335 85.0984 36.9703 85.018 36.8906L82.5783 34.4727C83.1176 33.7539 83.1559 32.6835 82.4042 31.9359Z" fill="#00144A"/>
    <path d="M72.7271 22.3101L77.1146 26.674L82.4042 31.9359C83.1559 32.6835 83.1176 33.7539 82.5763 34.4701L69.8601 21.8683C69.8577 21.8653 69.855 21.8625 69.8522 21.8598C70.7404 21.4109 71.8943 21.4815 72.7271 22.3101Z" fill="#00144A"/>
    <path d="M70.4081 23.6741C70.3499 23.7717 70.1067 23.7339 69.8649 23.5898C69.6231 23.4456 69.4743 23.2496 69.5324 23.152C69.5906 23.0545 69.8338 23.0922 70.0756 23.2364C70.3174 23.3805 70.4663 23.5765 70.4081 23.6741Z" fill="#00144A"/>
    <path d="M64.4645 23.6408C64.5674 23.7768 64.4757 23.9725 64.3053 23.9804L61.8199 24.0956C60.6753 24.1487 59.8845 22.966 60.3709 21.9285C60.8574 20.891 62.2724 20.7425 62.9636 21.6564L64.4645 23.6408Z" fill="white"/>
  </g>
  <defs>
    <clipPath id="clip0_1240_2446">
      <rect width="179.704" height="83.8621" fill="white" transform="translate(9.95813 33.3242)"/>
    </clipPath>
  </defs>
</svg>
