<svg width="186" height="160" viewBox="0 0 186 160" fill="none" xmlns="http://www.w3.org/2000/svg">
    <mask id="mask0_396_6792" style="mask-type:alpha" maskUnits="userSpaceOnUse" x="0" y="7"
        width="145" height="146">
        <circle cx="72.4625" cy="79.5377" r="72.4625" fill="#EBF8FF" />
    </mask>
    <g mask="url(#mask0_396_6792)">
        <path
            d="M236.799 3.9751H11.2013C9.73084 3.97374 8.2745 4.26221 6.91555 4.824C5.5566 5.3858 4.32169 6.20991 3.28142 7.24922C2.24114 8.28854 1.4159 9.52268 0.852852 10.8811C0.289805 12.2395 -6.26867e-07 13.6956 0 15.1661V147.774C0 150.745 1.18013 153.594 3.28079 155.694C5.38145 157.795 8.23055 158.975 11.2013 158.975H236.799C239.769 158.975 242.619 157.795 244.719 155.694C246.82 153.594 248 150.745 248 147.774V15.1661C248 13.6956 247.71 12.2395 247.147 10.8811C246.584 9.52268 245.759 8.28854 244.719 7.24922C243.678 6.20991 242.443 5.3858 241.084 4.824C239.725 4.26221 238.269 3.97374 236.799 3.9751Z"
            fill="#EBF8FF" />
        <path
            d="M4.47154e-05 60.1628L10.1976 51.6007C30.1982 34.8078 55.2706 25.2386 81.3738 24.4354L85.3186 24.314C89.3999 24.1884 93.4846 24.3856 97.5348 24.9036L103.162 25.6234C139.282 30.2434 173.812 43.2829 203.969 63.6913L248 93.4878V122.938H0L4.47154e-05 60.1628Z"
            fill="#D1EFFF" />
        <path
            d="M0 109.375L46.6052 103.362C71.4305 100.158 96.6101 100.985 121.172 105.81L152.084 111.882C164.434 114.307 177.188 113.689 189.245 110.08L211.529 103.41C221.929 100.297 233.158 101.69 242.483 107.249L248 110.538V123.325H0V109.375Z"
            fill="#B8E6FF" />
        <ellipse cx="2.06666" cy="2.06667" rx="2.06666" ry="2.06667"
            transform="matrix(-1 0 0 1 14.2084 9.40015)" fill="#EBF8FF" />
        <ellipse cx="1.55" cy="1.55" rx="1.55" ry="1.55"
            transform="matrix(-1 0 0 1 110.825 10.9502)" fill="#EBF8FF" />
        <ellipse cx="1.03334" cy="1.03333" rx="1.03334" ry="1.03333"
            transform="matrix(-1 0 0 1 50.8917 16.3752)" fill="#EBF8FF" />
        <ellipse cx="1.03333" cy="1.03333" rx="1.03333" ry="1.03333"
            transform="matrix(-1 0 0 1 5.94165 30.3252)" fill="#EBF8FF" />
        <path
            d="M25.0909 36.8574H43.5852C44.3358 36.8574 45.0791 37.0035 45.7726 37.2872C46.4661 37.571 47.0962 37.9869 47.6269 38.5112C48.1577 39.0355 48.5788 39.658 48.866 40.3431C49.1533 41.0281 49.3011 41.7623 49.3011 42.5038C49.3011 43.2453 49.1533 43.9796 48.866 44.6646C48.5788 45.3497 48.1577 45.9722 47.6269 46.4965C47.0962 47.0208 46.4661 47.4367 45.7726 47.7205C45.0791 48.0042 44.3358 48.1503 43.5852 48.1503H25.0909C23.575 48.1503 22.1211 47.5554 21.0492 46.4965C19.9772 45.4376 19.375 44.0014 19.375 42.5038C19.375 41.0063 19.9772 39.5701 21.0492 38.5112C22.1211 37.4523 23.575 36.8574 25.0909 36.8574Z"
            fill="#B8E6FF" />
        <path
            d="M34.6899 31.2109H53.1841C53.9348 31.2109 54.678 31.357 55.3715 31.6407C56.065 31.9245 56.6951 32.3404 57.2259 32.8647C57.7566 33.3891 58.1777 34.0115 58.4649 34.6966C58.7522 35.3816 58.9 36.1159 58.9 36.8574C58.9 37.5989 58.7522 38.3331 58.4649 39.0182C58.1777 39.7032 57.7566 40.3257 57.2259 40.85C56.6951 41.3743 56.065 41.7902 55.3715 42.074C54.678 42.3577 53.9348 42.5038 53.1841 42.5038H34.6899C33.1739 42.5038 31.72 41.9089 30.6481 40.85C29.5762 39.7911 28.974 38.3549 28.974 36.8574C28.974 35.3598 29.5762 33.9236 30.6481 32.8647C31.72 31.8058 33.1739 31.2109 34.6899 31.2109Z"
            fill="#B8E6FF" />
    </g>
    <g clip-path="url(#clip0_396_6792)">
        <path
            d="M60.204 69.0764C60.1482 68.9161 60.1331 68.7445 60.1602 68.5769C60.1874 68.4094 60.2558 68.2512 60.3595 68.1168C60.4631 67.9823 60.5986 67.8758 60.7537 67.8069C60.9088 67.7379 61.0788 67.7087 61.248 67.7218L139.315 68.6434C139.719 68.6677 140.107 68.8146 140.427 69.0644C140.746 69.3143 140.982 69.6554 141.103 70.0424L159.228 137.339C159.285 137.501 159.301 137.674 159.275 137.844C159.249 138.014 159.181 138.174 159.078 138.312C158.974 138.449 158.839 138.559 158.683 138.631C158.527 138.703 158.356 138.736 158.184 138.727L81.0395 139.559C80.6365 139.547 80.2472 139.41 79.9251 139.167C79.603 138.925 79.3638 138.588 79.2403 138.205L60.204 69.0764Z"
            fill="#F58B00" />
        <path
            d="M126.953 139.026C126.772 139.032 126.591 138.999 126.423 138.929C126.256 138.858 126.106 138.753 125.983 138.618C125.861 138.484 125.769 138.325 125.714 138.152C125.659 137.979 125.642 137.796 125.665 137.616L131.962 70.0312C132.005 69.6473 132.187 69.2923 132.473 69.0327C132.76 68.7731 133.131 68.6268 133.517 68.6211H139.314C139.718 68.6392 140.106 68.7811 140.426 69.0274C140.746 69.2737 140.982 69.6126 141.103 69.9979L159.228 137.294C159.285 137.456 159.301 137.63 159.275 137.8C159.249 137.969 159.181 138.13 159.078 138.267C158.974 138.405 158.839 138.514 158.683 138.587C158.527 138.659 158.356 138.692 158.184 138.682L126.953 139.026Z"
            fill="#CC7400" />
        <path
            d="M100.698 144.578C100.541 144.581 100.388 144.53 100.265 144.434C97.3152 142.13 94.5317 139.622 91.9348 136.928C85.6598 130.433 79.7178 121.883 71.2215 101.276L70.444 99.3992C66.1521 89.4694 62.4691 79.2875 59.4154 68.91C59.3883 68.821 59.3791 68.7276 59.3885 68.6351C59.3978 68.5425 59.4256 68.4528 59.4701 68.3712C59.5145 68.2895 59.5748 68.2175 59.6475 68.1594C59.7201 68.1013 59.8035 68.0583 59.893 68.0328C59.9827 68.0055 60.0769 67.9962 60.1702 68.0054C60.2636 68.0147 60.3541 68.0423 60.4367 68.0866C60.5192 68.131 60.5922 68.1913 60.6514 68.264C60.7106 68.3367 60.7549 68.4204 60.7816 68.5102C63.8192 78.8387 67.4836 88.9725 71.7546 98.8552L72.532 100.732C80.9728 121.128 86.8037 129.6 92.9566 135.94C95.5066 138.584 98.238 141.048 101.131 143.312C101.205 143.37 101.266 143.441 101.312 143.523C101.359 143.604 101.388 143.694 101.4 143.786C101.411 143.879 101.404 143.973 101.379 144.064C101.354 144.154 101.311 144.238 101.253 144.312C101.188 144.396 101.103 144.464 101.007 144.51C100.91 144.557 100.805 144.58 100.698 144.578Z"
            fill="white" />
        <path
            d="M15.0235 139.57C14.863 139.573 14.7065 139.521 14.5794 139.423C14.4523 139.325 14.3621 139.186 14.3234 139.031C14.2848 138.875 14.3001 138.711 14.3667 138.565C14.4333 138.419 14.5473 138.3 14.6903 138.227C29.8922 130.145 42.5731 118.032 51.3413 103.219C51.3883 103.137 51.451 103.066 51.5258 103.009C51.6005 102.952 51.6858 102.911 51.7766 102.887C51.8675 102.863 51.9622 102.858 52.0552 102.871C52.1482 102.884 52.2378 102.915 52.3186 102.963C52.4787 103.062 52.5937 103.22 52.6394 103.402C52.685 103.585 52.6576 103.778 52.5629 103.94C43.6715 118.972 30.8101 131.265 15.39 139.47C15.2792 139.536 15.1525 139.571 15.0235 139.57Z"
            fill="white" />
        <path
            d="M60.2041 69.0763C60.0042 68.3213 59.6599 68.3213 59.4489 69.0763L40.0683 138.393C40.0099 138.553 39.9926 138.724 40.0179 138.892C40.0433 139.06 40.1106 139.219 40.2135 139.354C40.3164 139.489 40.4517 139.595 40.6068 139.664C40.762 139.733 40.932 139.762 41.1012 139.748L78.2185 139.581C78.3896 139.593 78.5609 139.562 78.717 139.491C78.8731 139.42 79.0091 139.312 79.1127 139.175C79.2163 139.038 79.2842 138.878 79.3104 138.709C79.3365 138.539 79.3201 138.366 79.2625 138.205L60.2041 69.0763Z"
            fill="white" />
        <path
            d="M53.0181 139.715C52.8444 139.721 52.6718 139.686 52.514 139.613C52.3562 139.54 52.2178 139.431 52.1098 139.295C52.0017 139.159 51.9272 139 51.892 138.829C51.8569 138.659 51.8621 138.483 51.9074 138.316L58.438 106.227C58.5935 105.461 58.8378 105.461 58.9933 106.227L65.3017 138.36C65.347 138.528 65.3523 138.704 65.3171 138.874C65.282 139.044 65.2074 139.203 65.0994 139.34C64.9914 139.476 64.8529 139.584 64.6952 139.657C64.5374 139.73 64.3647 139.765 64.1911 139.759L53.0181 139.715Z"
            fill="#00144A" />
        <path
            d="M101.586 145.688C101.586 146.465 101.142 147.109 100.709 147.109C100.276 147.109 99.8981 146.465 99.8536 145.688L99.5649 140.137C99.5449 139.963 99.5606 139.788 99.6109 139.621C99.6612 139.455 99.7451 139.3 99.8575 139.167C99.9699 139.034 100.108 138.925 100.264 138.847C100.42 138.77 100.59 138.725 100.764 138.715C100.936 138.724 101.104 138.769 101.258 138.846C101.411 138.924 101.547 139.032 101.657 139.165C101.766 139.297 101.847 139.451 101.894 139.616C101.941 139.782 101.954 139.955 101.931 140.125L101.586 145.688Z"
            fill="#00144A" />
        <path
            d="M15.9785 140.703C15.9785 141.48 15.5343 142.124 15.1123 142.124C14.6903 142.124 14.2904 141.48 14.246 140.703L13.9572 135.096C13.9389 134.923 13.9557 134.748 14.0067 134.582C14.0576 134.416 14.1416 134.262 14.2537 134.129C14.3657 133.997 14.5035 133.888 14.6587 133.81C14.8139 133.732 14.9833 133.686 15.1567 133.675C15.3293 133.685 15.4979 133.731 15.652 133.81C15.8062 133.888 15.9426 133.997 16.0529 134.131C16.1632 134.264 16.245 134.418 16.2934 134.584C16.3417 134.75 16.3555 134.924 16.334 135.096L15.9785 140.703Z"
            fill="#00144A" />
    </g>
    <path d="M71.7478 57.0469L66.9175 58.3817L72.2122 58.5659L71.7478 57.0469Z" fill="#F58B00" />
    <path d="M69.9364 59.2564L66.9175 58.3818L70.3544 58.4739L69.9364 59.2564Z" fill="#CC7400" />
    <path
        d="M74.4714 69.9293H81.5841C83.2457 69.9293 84.0796 67.9397 82.9099 66.7729L77.8456 61.7351L73.645 57.557C72.1577 56.0774 69.6079 57.1191 69.6079 59.21V65.1061C69.6077 66.3848 70.12 67.6112 71.032 68.5157C71.944 69.4202 73.1811 69.9286 74.4714 69.9293Z"
        fill="#0070F2" />
    <path opacity="0.5"
        d="M72.7505 58.97C72.4268 58.6492 72.4267 58.1291 72.7502 57.8084C73.0738 57.4877 73.5985 57.4878 73.9222 57.8087L86.5815 70.3547C86.9052 70.6755 86.9053 71.1956 86.5817 71.5162C86.2581 71.8369 85.7334 71.8368 85.4097 71.516L72.7505 58.97Z"
        fill="white" />
    <path
        d="M74.4742 59.7913L72.64 61.6091C72.1428 62.1019 71.8634 62.7703 71.8634 63.4672C71.8634 64.1641 72.1428 64.8325 72.64 65.3253L74.3131 66.9834C75.2969 67.9586 76.6312 68.5066 78.0227 68.507C79.4141 68.5073 80.7488 67.9599 81.733 66.9851L74.4742 59.7913Z"
        fill="#00144A" />
    <path
        d="M82.9067 66.773L77.8424 61.7352L73.6418 57.5572C72.8445 56.7638 73.5938 58.5319 72.7422 58.9617C72.5902 58.8071 72.5059 58.5995 72.5073 58.3837C72.5087 58.1679 72.5958 57.9613 72.7498 57.8087C72.9052 57.6548 73.1159 57.5683 73.3356 57.5683C73.5553 57.5683 73.766 57.6548 73.9215 57.8087L86.5814 70.3555C86.7367 70.5095 86.8239 70.7183 86.8239 70.9361C86.8239 71.1538 86.7367 71.3626 86.5814 71.5167C86.5044 71.593 86.413 71.6535 86.3125 71.6948C86.2119 71.7361 86.1041 71.7573 85.9952 71.7573C85.8864 71.7573 85.7786 71.7361 85.678 71.6948C85.5775 71.6535 85.4861 71.593 85.4091 71.5167L83.0733 69.2018C83.5897 68.5135 83.6263 67.4887 82.9067 66.773Z"
        fill="#00144A" />
    <path
        d="M73.6418 57.557L77.8424 61.7351L82.9067 66.7729C83.6263 67.4886 83.5897 68.5134 83.0714 69.1991L70.8969 57.1341C70.8946 57.1312 70.892 57.1285 70.8893 57.126C71.7397 56.6962 72.8445 56.7637 73.6418 57.557Z"
        fill="#00144A" />
    <path
        d="M71.4215 58.8631C71.3658 58.9565 71.133 58.9204 70.9015 58.7824C70.67 58.6443 70.5275 58.4567 70.5832 58.3633C70.6389 58.2698 70.8717 58.306 71.1032 58.444C71.3347 58.582 71.4772 58.7696 71.4215 58.8631Z"
        fill="#00144A" />
    <path
        d="M65.731 58.8311C65.8296 58.9613 65.7417 59.1487 65.5786 59.1562L63.1991 59.2666C62.1032 59.3174 61.3461 58.185 61.8118 57.1918C62.2776 56.1985 63.6323 56.0563 64.2941 56.9313L65.731 58.8311Z"
        fill="white" />
    <defs>
        <clipPath id="clip0_396_6792">
            <rect width="172.05" height="80.29" fill="white" transform="translate(13.95 67.7188)" />
        </clipPath>
    </defs>
</svg>
    