<svg width="320" height="240" viewBox="0 0 320 240" fill="none" xmlns="http://www.w3.org/2000/svg">
<path fill-rule="evenodd" clip-rule="evenodd" d="M257.28 67.8267C257.28 46.9356 240.344 30 219.453 30H37.8267C16.9356 30 0 46.9356 0 67.8267V67.84C0 88.7311 16.9356 105.667 37.8267 105.667H166.73C166.443 107.29 166.293 108.961 166.293 110.666C166.293 126.432 179.074 139.213 194.84 139.213H291.453C307.219 139.213 320 126.432 320 110.666C320 94.9006 307.219 82.1198 291.453 82.1198H254.492C256.289 77.7136 257.28 72.8925 257.28 67.84V67.8267ZM5.41341 161.28C5.41341 145.514 18.1942 132.733 33.9601 132.733H130.573C146.268 132.733 159.005 145.399 159.119 161.067H165.747C181.512 161.067 194.293 173.848 194.293 189.613C194.293 205.379 181.512 218.16 165.747 218.16H69.1333C53.4385 218.16 40.7021 205.494 40.5874 189.827H33.9601C18.1942 189.827 5.41341 177.046 5.41341 161.28Z" fill="#DBF1FF"/>
<path d="M143.428 45.0776L118.926 192.874C117.839 199.43 122.268 205.626 128.819 206.713L231.534 223.768C238.085 224.855 244.276 220.423 245.363 213.867L269.865 66.0706C270.952 59.5149 266.522 53.3189 259.972 52.2312L157.256 35.1769C150.706 34.0892 144.514 38.5219 143.428 45.0776Z" fill="#FF7F4C"/>
<path d="M229.242 42.1892H129.526C122.886 42.1892 117.503 47.5762 117.503 54.2215V198.052C117.503 204.698 122.886 210.085 129.526 210.085H229.242C235.882 210.085 241.265 204.698 241.265 198.052V54.2215C241.265 47.5762 235.882 42.1892 229.242 42.1892Z" fill="white"/>
<path d="M229.242 211.588H129.526C125.939 211.588 122.498 210.162 119.962 207.624C117.425 205.085 116 201.642 116 198.052V54.2214C116 50.6313 117.425 47.1883 119.962 44.6498C122.498 42.1112 125.939 40.6851 129.526 40.6851H229.242C232.829 40.6851 236.27 42.1112 238.806 44.6498C241.343 47.1883 242.768 50.6313 242.768 54.2214V198.052C242.768 201.642 241.343 205.085 238.806 207.624C236.27 210.162 232.829 211.588 229.242 211.588ZM129.526 43.6931C126.736 43.6931 124.06 44.8023 122.087 46.7768C120.114 48.7512 119.006 51.4291 119.006 54.2214V198.052C119.006 200.844 120.114 203.522 122.087 205.497C124.06 207.471 126.736 208.58 129.526 208.58H229.242C232.032 208.58 234.708 207.471 236.681 205.497C238.654 203.522 239.762 200.844 239.762 198.052V54.2214C239.762 51.4291 238.654 48.7512 236.681 46.7768C234.708 44.8023 232.032 43.6931 229.242 43.6931H129.526Z" fill="#00144A"/>
<path d="M210 129C210 145.569 196.569 159 180 159C163.431 159 150 145.569 150 129C150 112.431 163.431 99 180 99C196.569 99 210 112.431 210 129Z" fill="#DF1278"/>
<path fill-rule="evenodd" clip-rule="evenodd" d="M191.422 122.117C192.592 120.947 192.592 119.049 191.422 117.878C190.251 116.707 188.353 116.707 187.182 117.878L180.15 124.911L173.117 117.878C171.947 116.707 170.049 116.707 168.878 117.878C167.707 119.049 167.707 120.947 168.878 122.117L175.911 129.15L168.878 136.182C167.707 137.353 167.707 139.251 168.878 140.422C170.049 141.592 171.947 141.592 173.117 140.422L180.15 133.389L187.182 140.422C188.353 141.592 190.251 141.592 191.422 140.422C192.592 139.251 192.592 137.353 191.422 136.182L184.389 129.15L191.422 122.117Z" fill="white"/>
<path d="M312.275 58.3255C311.979 57.9715 311.593 57.7038 311.158 57.5506C310.723 57.3973 310.255 57.3642 309.803 57.4546L298.987 59.3253C297.198 59.6339 296.491 61.2781 296.734 62.6802C296.812 63.2576 297.075 63.794 297.484 64.2088C297.894 64.6236 298.427 64.8944 299.003 64.9805C299.283 65.0138 299.566 65.0046 299.843 64.9531L310.658 63.0824C311.134 63.0101 311.582 62.8104 311.954 62.5045C312.326 62.1985 312.608 61.7977 312.771 61.3445C312.952 60.8407 313.002 60.2989 312.915 59.7706C312.828 59.2423 312.608 58.7448 312.275 58.3255Z" fill="#A9B4BE"/>
<path d="M271.166 15.1267C270.853 15.0203 270.522 14.9802 270.193 15.0091C269.864 15.0379 269.545 15.135 269.256 15.2941C268.967 15.4532 268.714 15.6709 268.513 15.9333C268.313 16.1956 268.17 16.4969 268.092 16.8178L265.112 27.0853C265.006 27.4549 264.975 27.8418 265.02 28.2235C265.065 28.6053 265.186 28.9741 265.376 29.3086C265.565 29.6431 265.819 29.9365 266.124 30.1717C266.428 30.4069 266.776 30.5792 267.147 30.6784C267.299 30.7236 267.454 30.7563 267.612 30.7761C268.192 30.8575 268.782 30.7186 269.265 30.3868C269.748 30.055 270.089 29.5543 270.221 28.9834L273.197 18.7198C273.304 18.3505 273.335 17.9637 273.291 17.582C273.246 17.2003 273.125 16.8313 272.936 16.4967C272.747 16.1622 272.493 15.8687 272.189 15.6334C271.885 15.3982 271.537 15.2259 271.166 15.1267Z" fill="#A9B4BE"/>
<path d="M297.741 29.0302C297.381 29.0069 297.02 29.0572 296.681 29.178C296.341 29.2989 296.029 29.4878 295.765 29.7332L283.797 40.6218C283.263 41.1131 282.94 41.7918 282.895 42.5161C282.85 43.2403 283.086 43.9539 283.555 44.5077C283.992 45.0196 284.606 45.3486 285.274 45.4294C285.659 45.4754 286.05 45.4378 286.419 45.3192C286.788 45.2006 287.128 45.0037 287.414 44.7421L299.382 33.8535C299.919 33.3599 300.244 32.6771 300.289 31.9488C300.333 31.2205 300.093 30.5033 299.62 29.948C299.385 29.6764 299.097 29.4551 298.774 29.2974C298.451 29.1397 298.1 29.0488 297.741 29.0302Z" fill="#A9B4BE"/>
</svg>
