<svg viewBox="0 0 264 162" fill="none" 
xmlns="http://www.w3.org/2000/svg">
<g clip-path="url(#clip0_1_2)">
  <path
    d="M18.0219 86.098C18.0219 85.114 15.1575 84.326 11.3302 84.147C11.1114 80.333 10.2689 77.498 9.2821 77.5C8.2952 77.502 7.4746 80.36 7.2645 84.193C3.4263 84.455 0.572853 85.31 0.585983 86.297C0.599113 87.284 3.4504 88.072 7.2776 88.248C7.5074 92.062 8.3389 94.898 9.3236 94.895C10.3083 94.893 11.1333 92.036 11.3434 88.203C15.1815 87.941 18.0328 87.085 18.0219 86.098Z"
    fill="#D1EFFF" />
  <path
    d="M262.166 122.366C262.166 121.541 259.768 120.882 256.563 120.732C256.38 117.539 255.674 115.164 254.848 115.166C254.022 115.168 253.335 117.56 253.159 120.77C249.945 120.989 247.555 121.706 247.566 122.532C247.577 123.358 249.965 124.018 253.17 124.166C253.362 127.359 254.058 129.734 254.883 129.732C255.707 129.73 256.398 127.338 256.574 124.128C259.788 123.909 262.176 123.192 262.166 122.366Z"
    fill="#D1EFFF" />
  <path
    d="M174.259 10.87C174.259 9.6335 170.662 8.6437 165.854 8.4189C165.58 3.6291 164.521 0.0675988 163.282 0.0702988C162.042 0.0730988 161.012 3.662 160.748 8.4765C155.927 8.8055 152.343 9.8803 152.359 11.1195C152.376 12.3588 155.957 13.3486 160.764 13.5707C161.053 18.3605 162.097 21.922 163.334 21.9193C164.571 21.9165 165.607 18.3276 165.871 13.5131C170.692 13.1841 174.273 12.1093 174.259 10.87Z"
    fill="#D1EFFF" />
  <path fill-rule="evenodd" clip-rule="evenodd"
    d="M245.045 73.683L223.375 84.937L231.118 99.777H231.119C232.191 101.831 237.91 100.976 243.894 97.869C249.878 94.761 253.86 90.576 252.788 88.522C252.782 88.511 252.776 88.5 252.77 88.489L245.045 73.683Z"
    fill="#9EDDFF" />
  <path
    d="M236.138 83.0081C242.122 79.9003 246.104 75.7158 245.032 73.6618C243.961 71.6078 238.241 72.4621 232.257 75.5699C226.273 78.6776 222.291 82.8621 223.363 84.9161C224.434 86.9701 230.154 86.1159 236.138 83.0081Z"
    fill="#B8E6FF" />
  <path fill-rule="evenodd" clip-rule="evenodd"
    d="M238.053 69.068L223.596 76.576L226.252 81.667C226.257 81.678 226.262 81.688 226.268 81.698C226.935 82.977 230.712 82.333 234.705 80.26C238.697 78.187 241.392 75.469 240.725 74.19L238.053 69.068Z"
    fill="#9EDDFF" />
  <path
    d="M232.032 75.137C236.025 73.0635 238.72 70.346 238.053 69.0671C237.385 67.7882 233.608 68.4323 229.616 70.5057C225.623 72.5792 222.928 75.2967 223.595 76.5756C224.263 77.8545 228.04 77.2104 232.032 75.137Z"
    fill="#B8E6FF" />
  <path fill-rule="evenodd" clip-rule="evenodd"
    d="M202.445 10.9229C203.2 9.3433 203.229 7.4414 202.357 5.7695C200.881 2.9425 197.389 1.8438 194.555 3.3154C191.721 4.7871 190.62 8.2718 192.095 11.0988C192.968 12.7713 194.547 13.8389 196.277 14.1272L226.493 72.036C227.381 73.737 229.482 74.4 231.185 73.515C232.888 72.631 233.549 70.534 232.661 68.833L202.445 10.9229Z"
    fill="#B8E6FF" />
  <path
    d="M246.166 4.5967C248.653 4.1789 250.159 7.252 248.302 8.953L216.433 38.1355C215.848 38.6708 214.913 38.506 214.547 37.803L201.932 13.6276C201.554 12.9021 201.993 12.0196 202.801 11.884L246.166 4.5967Z"
    fill="#9EDDFF" />
  <path
    d="M245.227 6.5855C247.678 6.1388 249.236 9.1252 247.464 10.8721L217.607 40.295C217.029 40.8641 216.064 40.7121 215.689 39.9928L203.092 15.8504C202.716 15.1311 203.145 14.2552 203.944 14.1097L245.227 6.5855Z"
    fill="#D1EFFF" />
  <path d="M128.329 108.251L100.268 84.046L212.29 96.842L239.219 120.382L128.329 108.251Z"
    fill="#64EDD2" />
  <path d="M100.301 84.041L128.273 108.124L116.477 137.447L89.1066 111.98L100.301 84.041Z"
    fill="#64EDD2" />
  <path d="M128.283 108.203L239.191 120.367L227.764 148.888L116.498 137.59L128.283 108.203Z"
    fill="#00A58A" />
  <path d="M163.988 82.015L135.927 57.8105L210.329 67.125L237.463 90.652L163.988 82.015Z"
    fill="#F58B00" />
  <path d="M135.961 57.8184L163.933 81.902L152.448 110.797L124.767 85.757L135.961 57.8184Z"
    fill="#F58B00" />
  <path d="M163.944 81.969L237.521 90.612L226.094 119.13L152.403 110.904L163.944 81.969Z"
    fill="#CC7400" />
  <path fill-rule="evenodd" clip-rule="evenodd"
    d="M165.82 61.3924L148.402 54.459L146.2 59.9562L146.201 59.9565C145.711 61.2093 149.201 63.7713 154.005 65.683C158.815 67.598 163.12 68.137 163.621 66.886C163.628 66.87 163.633 66.854 163.639 66.837L165.82 61.3924Z"
    fill="#CC7400" />
  <path
    d="M156.201 60.1944C161.011 62.1092 165.317 62.6475 165.818 61.3966C166.319 60.1456 162.826 57.5793 158.016 55.6644C153.206 53.7496 148.901 53.2114 148.4 54.4623C147.898 55.7132 151.391 58.2795 156.201 60.1944Z"
    fill="#F58B00" />
  <path fill-rule="evenodd" clip-rule="evenodd"
    d="M189.918 64.6307L172.5 57.6973L170.297 63.1945L170.298 63.1948C169.809 64.4476 173.299 67.01 178.102 68.922C182.912 70.837 187.218 71.375 187.719 70.124C187.725 70.108 187.731 70.092 187.736 70.075L189.918 64.6307Z"
    fill="#CC7400" />
  <path
    d="M180.296 63.4326C185.106 65.3474 189.412 65.8857 189.913 64.6348C190.414 63.3839 186.921 60.8175 182.111 58.9027C177.301 56.9878 172.996 56.4496 172.495 57.7005C171.993 58.9514 175.486 61.5177 180.296 63.4326Z"
    fill="#F58B00" />
  <path fill-rule="evenodd" clip-rule="evenodd"
    d="M213.148 66.994L195.73 60.0605L193.528 65.558H193.529C193.039 66.811 196.529 69.373 201.333 71.285C206.143 73.2 210.448 73.738 210.949 72.487C210.956 72.471 210.962 72.455 210.967 72.438L213.148 66.994Z"
    fill="#CC7400" />
  <path
    d="M203.529 65.7959C208.339 67.7107 212.645 68.2489 213.146 66.998C213.647 65.7471 210.154 63.1808 205.344 61.2659C200.534 59.3511 196.229 58.8129 195.728 60.0638C195.226 61.3147 198.719 63.881 203.529 65.7959Z"
    fill="#F58B00" />
  <path fill-rule="evenodd" clip-rule="evenodd"
    d="M226.892 81.234L209.475 74.301L207.272 79.798C206.782 81.051 210.274 83.613 215.077 85.525C219.887 87.44 224.192 87.978 224.694 86.727C224.7 86.711 224.706 86.695 224.711 86.679L226.892 81.234Z"
    fill="#CC7400" />
  <path
    d="M217.273 80.0361C222.083 81.9509 226.389 82.4891 226.89 81.2382C227.391 79.9873 223.898 77.421 219.088 75.5061C214.278 73.5913 209.973 73.0531 209.472 74.304C208.97 75.5549 212.463 78.1212 217.273 80.0361Z"
    fill="#F58B00" />
  <path fill-rule="evenodd" clip-rule="evenodd"
    d="M204.377 78.97L186.959 72.037L184.756 77.534L184.757 77.535C184.268 78.787 187.758 81.349 192.561 83.262C197.371 85.176 201.677 85.715 202.178 84.464C202.184 84.448 202.19 84.431 202.195 84.415L204.377 78.97Z"
    fill="#CC7400" />
  <path
    d="M194.757 77.7721C199.567 79.6869 203.873 80.2252 204.374 78.9743C204.875 77.7234 201.382 75.157 196.572 73.2422C191.762 71.3273 187.457 70.7891 186.956 72.04C186.454 73.2909 189.947 75.8572 194.757 77.7721Z"
    fill="#F58B00" />
  <path fill-rule="evenodd" clip-rule="evenodd"
    d="M180.283 75.734L162.865 68.801L160.663 74.298H160.664C160.174 75.551 163.664 78.113 168.468 80.025C173.278 81.94 177.583 82.478 178.084 81.228C178.091 81.211 178.097 81.194 178.102 81.177L180.283 75.734Z"
    fill="#CC7400" />
  <path
    d="M170.662 74.5361C175.472 76.4509 179.778 76.9891 180.279 75.7382C180.78 74.4873 177.287 71.921 172.477 70.0061C167.667 68.0913 163.362 67.5531 162.861 68.804C162.359 70.0549 165.852 72.6212 170.662 74.5361Z"
    fill="#F58B00" />
  <path fill-rule="evenodd" clip-rule="evenodd"
    d="M130.158 87.615L112.74 80.682L110.538 86.179C110.048 87.432 113.539 89.994 118.343 91.906C123.153 93.821 127.458 94.359 127.959 93.108C127.966 93.092 127.971 93.076 127.977 93.06L130.158 87.615Z"
    fill="#00A58A" />
  <path
    d="M120.541 86.4169C125.351 88.3319 129.656 88.8702 130.157 87.6194C130.659 86.3686 127.165 83.8022 122.355 81.8873C117.545 79.9724 113.24 79.434 112.739 80.6848C112.238 81.9356 115.731 84.502 120.541 86.4169Z"
    fill="#64EDD2" />
  <path fill-rule="evenodd" clip-rule="evenodd"
    d="M144.621 101.957L127.203 95.023L125.001 100.521C124.511 101.774 128.002 104.336 132.806 106.248C137.616 108.163 141.921 108.701 142.422 107.45C142.429 107.434 142.434 107.418 142.439 107.402L144.621 101.957Z"
    fill="#00A58A" />
  <path
    d="M135.004 100.759C139.814 102.674 144.119 103.212 144.62 101.961C145.122 100.711 141.628 98.1442 136.818 96.2293C132.008 94.3144 127.703 93.776 127.202 95.0268C126.701 96.2776 130.194 98.844 135.004 100.759Z"
    fill="#64EDD2" />
  <path d="M61.3911 47.8811L24.2928 48.6346L85.855 5.9187L121.81 5.2815L61.3911 47.8811Z"
    fill="#0070F2" />
  <path d="M24.3224 48.6446L61.2913 47.864L71.6731 75.957L34.7496 76.861L24.3224 48.6446Z"
    fill="#004DA5" />
  <path d="M61.3117 47.896L121.823 5.2284L132.464 34.0238L71.6802 75.953L61.3117 47.896Z"
    fill="#005DC9" />
  <path fill-rule="evenodd" clip-rule="evenodd"
    d="M48.9282 31.3646L31.3274 37.8339L33.3651 43.3466C33.3687 43.3584 33.3726 43.3701 33.3769 43.3817C33.8437 44.6444 38.1622 44.2198 43.0227 42.4332C47.8799 40.6479 51.4402 38.178 50.9791 36.9145L48.9282 31.3646Z"
    fill="#004DA5" />
  <path
    d="M40.9752 36.8866C45.8357 35.1 49.3975 32.6281 48.9308 31.3654C48.4641 30.1026 44.1455 30.5273 39.2851 32.3139C34.4246 34.1005 30.8628 36.5724 31.3295 37.8352C31.7962 39.0979 36.1148 38.6732 40.9752 36.8866Z"
    fill="#005DC9" />
  <path fill-rule="evenodd" clip-rule="evenodd"
    d="M69.0024 17.681L51.4016 24.1503L53.4393 29.663C53.4429 29.6748 53.4469 29.6865 53.4511 29.6981C53.9179 30.9608 58.2364 30.5362 63.0969 28.7496C67.9541 26.9643 71.5144 24.4944 71.0533 23.2309L69.0024 17.681Z"
    fill="#004DA5" />
  <path
    d="M61.0494 23.205C65.9099 21.4184 69.4717 18.9465 69.005 17.6838C68.5383 16.421 64.2197 16.8457 59.3593 18.6323C54.4988 20.4189 50.937 22.8908 51.4037 24.1536C51.8704 25.4163 56.189 24.9916 61.0494 23.205Z"
    fill="#005DC9" />
  <path fill-rule="evenodd" clip-rule="evenodd"
    d="M87.854 3.9271L70.2531 10.3964L72.2909 15.9091C72.2945 15.9209 72.2984 15.9326 72.3027 15.9442C72.7694 17.2069 77.088 16.7823 81.9484 14.9957C86.8057 13.2103 90.366 10.7405 89.9049 9.477L87.854 3.9271Z"
    fill="#004DA5" />
  <path
    d="M79.901 9.45113C84.7615 7.66454 88.3233 5.19258 87.8566 3.92986C87.3899 2.66713 83.0713 3.0918 78.2109 4.87839C73.3504 6.66498 69.7886 9.13694 70.2553 10.3997C70.722 11.6624 75.0406 11.2377 79.901 9.45113Z"
    fill="#005DC9" />
  <path fill-rule="evenodd" clip-rule="evenodd"
    d="M107.618 5.3334L90.0168 11.8026L92.055 17.3154C92.058 17.3271 92.062 17.3388 92.066 17.3504C92.533 18.6132 96.852 18.1885 101.712 16.402C106.569 14.6166 110.13 12.1467 109.669 10.8832L107.618 5.3334Z"
    fill="#004DA5" />
  <path
    d="M99.6646 10.8573C104.525 9.07075 108.087 6.59879 107.62 5.33606C107.153 4.07333 102.835 4.49801 97.9745 6.28459C93.114 8.07118 89.5522 10.5431 90.0189 11.8059C90.4856 13.0686 94.8042 12.6439 99.6646 10.8573Z"
    fill="#005DC9" />
  <path fill-rule="evenodd" clip-rule="evenodd"
    d="M89.3677 18.683L71.7668 25.1522L73.8045 30.665C73.8082 30.6768 73.8121 30.6884 73.8164 30.7C74.2831 31.9628 78.6017 31.5381 83.4621 29.7516C88.3194 27.9662 91.88 25.4963 91.419 24.2328L89.3677 18.683Z"
    fill="#004DA5" />
  <path
    d="M81.4146 24.2069C86.2751 22.4203 89.8369 19.9484 89.3702 18.6857C88.9035 17.4229 84.5849 17.8476 79.7245 19.6342C74.864 21.4208 71.3022 23.8927 71.7689 25.1555C72.2356 26.4182 76.5542 25.9935 81.4146 24.2069Z"
    fill="#005DC9" />
  <path fill-rule="evenodd" clip-rule="evenodd"
    d="M69.2915 32.3666L51.6906 38.8358L53.7284 44.3486C53.732 44.3604 53.7359 44.372 53.7402 44.3836C54.2069 45.6464 58.5255 45.2217 63.3859 43.4352C68.2432 41.6498 71.8035 39.1799 71.3424 37.9164L69.2915 32.3666Z"
    fill="#004DA5" />
  <path
    d="M61.3385 37.8905C66.199 36.1039 69.7608 33.632 69.2941 32.3693C68.8274 31.1065 64.5088 31.5312 59.6484 33.3178C54.7879 35.1044 51.2261 37.5763 51.6928 38.8391C52.1595 40.1018 56.4781 39.6771 61.3385 37.8905Z"
    fill="#005DC9" />
  <path d="M57.1631 104.441L45.1797 92.76L16.1979 122.353L28.1813 134.034L57.1631 104.441Z"
    fill="#D1EFFF" />
  <path d="M80.2498 126.947L57.1621 104.441L28.1803 134.034L51.2681 156.54L80.2498 126.947Z"
    fill="#B8E6FF" />
  <path d="M80.2491 126.947L65.9395 112.998L36.9577 142.591L51.2673 156.54L80.2491 126.947Z"
    fill="#9EDDFF" />
  <path d="M59.7426 123.859L48.6934 113.088L35.8414 126.211L46.8906 136.982L59.7426 123.859Z"
    fill="#9EDDFF" />
  <path
    d="M58.6778 135.349C55.2452 139.085 50.0835 139.938 47.1488 137.254C44.2141 134.571 44.6177 129.366 48.0503 125.63C51.483 121.894 56.6447 121.041 59.5793 123.724C62.514 126.408 62.1104 131.612 58.6778 135.349Z"
    fill="#9EDDFF" />
  <path fill-rule="evenodd" clip-rule="evenodd"
    d="M48.9985 135.241C50.3881 136.512 53.8033 136.612 56.6597 133.503C59.5162 130.394 59.1192 127.008 57.7296 125.738C56.34 124.467 52.9248 124.367 50.0684 127.476C47.2119 130.585 47.6089 133.97 48.9985 135.241ZM47.1488 137.254C50.0835 139.938 55.2452 139.085 58.6778 135.349C62.1104 131.612 62.514 126.408 59.5793 123.724C56.6447 121.041 51.483 121.894 48.0503 125.63C44.6177 129.366 44.2141 134.571 47.1488 137.254Z"
    fill="#B8E6FF" />
  <path fill-rule="evenodd" clip-rule="evenodd"
    d="M75.0884 127.007L57.222 109.591L33.3419 133.974L51.2083 151.39L75.0884 127.007ZM57.1621 104.441L28.1803 134.034L51.2681 156.54L80.2499 126.947L57.1621 104.441Z"
    fill="#D1EFFF" />
</g>
<defs>
  <clipPath id="clip0_1_2">
    <rect width="263" height="157" fill="white" />
  </clipPath>
</defs>
</svg>