<svg width="103" height="160" viewBox="0 0 103 160" fill="none" xmlns="http://www.w3.org/2000/svg">
    <path
        d="M75.4226 124.652V36.6585C75.4459 35.0275 74.826 33.4526 73.6963 32.2729C72.5666 31.0931 71.0175 30.4029 69.3825 30.3508H13.4367C11.6722 30.3508 9.92493 30.6974 8.29472 31.3707C6.6645 32.044 5.18325 33.031 3.93553 34.2751C2.68782 35.5193 1.69809 36.9963 1.02283 38.6218C0.347572 40.2474 0 41.9897 0 43.7492V126.161C0.00377982 129.713 1.42066 133.119 3.93972 135.631C6.45877 138.143 9.87423 139.556 13.4367 139.56H88.6166V139.46C84.9804 139.031 81.6285 137.286 79.1966 134.557C76.7646 131.827 75.4217 128.303 75.4226 124.652Z"
        fill="#D5DADD" />
    <path
        d="M75.4226 120.38V32.387C75.4459 30.756 74.826 29.1811 73.6963 28.0014C72.5666 26.8216 71.0175 26.1314 69.3825 26.0793H13.4367C11.6722 26.0793 9.92493 26.4259 8.29472 27.0992C6.6645 27.7726 5.18325 28.7595 3.93553 30.0036C2.68782 31.2478 1.69809 32.7248 1.02283 34.3504C0.347572 35.9759 0 37.7182 0 39.4777V121.89C0.00377982 125.442 1.42066 128.848 3.93972 131.36C6.45877 133.871 9.87423 135.284 13.4367 135.288H88.6166V135.188C84.9804 134.759 81.6285 133.015 79.1966 130.285C76.7646 127.556 75.4217 124.031 75.4226 120.38Z"
        fill="white" />
    <path fill-rule="evenodd" clip-rule="evenodd"
        d="M73.9095 32.3762L73.9097 32.3654C73.9273 31.1324 73.4587 29.941 72.6035 29.0478C71.7532 28.16 70.5884 27.6375 69.3568 27.5924H13.4367C11.8703 27.5924 10.3193 27.9001 8.87233 28.4977C7.42538 29.0953 6.11092 29.9712 5.0039 31.0751C3.89689 32.1789 3.01901 33.4891 2.42014 34.9308C1.82126 36.3725 1.51307 37.9175 1.51307 39.4777V121.889C1.51662 125.039 2.77304 128.059 5.00809 130.288C7.24345 132.517 10.2752 133.772 13.4383 133.775H80.8444C79.8344 133.06 78.9015 132.229 78.0669 131.292C75.3883 128.286 73.9087 124.403 73.9095 120.38C73.9095 120.38 73.9095 120.38 73.9095 120.38V32.3762ZM75.4226 120.38C75.4217 124.031 76.7646 127.556 79.1966 130.285C80.5003 131.749 82.0684 132.929 83.8029 133.775C85.304 134.507 86.9297 134.989 88.6166 135.188V135.288H13.4367C9.87423 135.284 6.45877 133.871 3.93972 131.36C1.42066 128.848 0.00377982 125.442 0 121.89V39.4777C0 37.7182 0.347572 35.9759 1.02283 34.3504C1.69809 32.7248 2.68782 31.2478 3.93553 30.0036C5.18325 28.7595 6.6645 27.7726 8.29472 27.0992C9.92493 26.4259 11.6722 26.0793 13.4367 26.0793H69.3825C71.0175 26.1314 72.5666 26.8216 73.6963 28.0014C74.826 29.1811 75.4459 30.756 75.4226 32.387V120.38Z"
        fill="#00144A" />
    <path
        d="M37.7114 49.8147H14.0222C12.3898 49.8147 11.0664 51.1343 11.0664 52.762V52.7763C11.0664 54.4041 12.3898 55.7236 14.0222 55.7236H37.7114C39.3438 55.7236 40.6671 54.4041 40.6671 52.7763V52.762C40.6671 51.1343 39.3438 49.8147 37.7114 49.8147Z"
        fill="#F58B00" />
    <path
        d="M102.397 30.5379C102.188 30.2884 101.916 30.0997 101.609 29.9917C101.303 29.8836 100.973 29.8603 100.654 29.924L93.0308 31.2426C91.7699 31.4601 91.2716 32.619 91.4423 33.6072C91.4974 34.0142 91.6831 34.3923 91.9715 34.6847C92.26 34.9771 92.6355 35.168 93.0418 35.2286C93.2389 35.2521 93.4385 35.2456 93.6337 35.2093L101.257 33.8908C101.592 33.8398 101.908 33.699 102.17 33.4834C102.432 33.2678 102.631 32.9853 102.746 32.6658C102.874 32.3107 102.909 31.9288 102.848 31.5564C102.786 31.1841 102.631 30.8335 102.397 30.5379Z"
        fill="#A9B4BE" />
    <path
        d="M73.421 0.0893038C73.2007 0.0143144 72.9673 -0.0139239 72.7355 0.00639198C72.5036 0.0267078 72.2786 0.0951303 72.0747 0.207293C71.8708 0.319456 71.6926 0.472895 71.5514 0.657812C71.4101 0.842729 71.309 1.05506 71.2544 1.28126L69.1539 8.51831C69.0792 8.77877 69.0572 9.0515 69.0892 9.32056C69.1211 9.58962 69.2063 9.84962 69.3398 10.0854C69.4734 10.3212 69.6525 10.528 69.8669 10.6937C70.0812 10.8595 70.3264 10.9809 70.5882 11.0509C70.6953 11.0827 70.8049 11.1057 70.9158 11.1197C71.3248 11.1771 71.7405 11.0792 72.0809 10.8453C72.4213 10.6115 72.6618 10.2585 72.7548 9.85616L74.8526 2.62186C74.9277 2.36158 74.9501 2.08894 74.9185 1.81989C74.8869 1.55085 74.802 1.2908 74.6687 1.05498C74.5354 0.819149 74.3564 0.612277 74.1422 0.446464C73.9279 0.280651 73.6828 0.159229 73.421 0.0893038Z"
        fill="#A9B4BE" />
    <path
        d="M92.1525 9.88918C91.8988 9.87271 91.6444 9.90816 91.4049 9.99336C91.1654 10.0786 90.9458 10.2117 90.7595 10.3847L82.3243 18.0594C81.9479 18.4057 81.72 18.8842 81.6882 19.3946C81.6564 19.9051 81.8231 20.4081 82.1536 20.7984C82.4616 21.1592 82.8939 21.3911 83.3649 21.4481C83.6364 21.4805 83.9117 21.454 84.1721 21.3704C84.4324 21.2868 84.6717 21.148 84.8736 20.9636L93.3088 13.2889C93.6875 12.9409 93.9166 12.4597 93.9479 11.9463C93.9793 11.433 93.8104 10.9275 93.4767 10.5361C93.3109 10.3446 93.1082 10.1887 92.8806 10.0775C92.6531 9.96633 92.4054 9.90228 92.1525 9.88918Z"
        fill="#A9B4BE" />
    <path
        d="M44.0529 160C64.8791 160 81.7621 158.106 81.7621 155.771C81.7621 153.435 64.8791 151.542 44.0529 151.542C23.2266 151.542 6.34363 153.435 6.34363 155.771C6.34363 158.106 23.2266 160 44.0529 160Z"
        fill="#D5DADD" />
</svg>
    