<svg width="161" height="160" viewBox="0 0 161 160" fill="none" xmlns="http://www.w3.org/2000/svg">
    <circle cx="80.4794" cy="94.0204" r="65.9794" fill="#EBF8FF" />
    <path fill-rule="evenodd" clip-rule="evenodd"
        d="M91.6624 6.68032C92.1889 6.51588 92.759 6.56777 93.2473 6.82458C93.7356 7.08139 94.1021 7.52209 94.2661 8.04971L102.733 35.275L103.88 35.4095L105.725 27.9708C106.141 26.2958 107.181 24.844 108.632 23.9139C110.083 22.9837 111.834 22.6459 113.526 22.9698C113.618 22.9875 113.706 23.0232 113.785 23.075C113.864 23.1269 113.932 23.1937 113.985 23.2718C114.038 23.3499 114.075 23.4376 114.094 23.53C114.113 23.6225 114.113 23.7178 114.096 23.8105L108.623 52.6013C108.586 52.9176 108.52 53.2299 108.427 53.5347L120.653 67.7529L95.2609 70.0522L91.0391 62.9995C90.1415 62.8515 89.2618 62.6005 88.4175 62.2499C86.9741 61.6506 85.6627 60.7722 84.5581 59.6649C83.4536 58.5576 82.5775 57.2431 81.98 55.7964C81.3824 54.3497 81.0751 52.7992 81.0756 51.2335V47.639C80.789 47.3393 80.5655 46.9703 80.4338 46.5471L74.083 26.1249C73.6288 24.6644 74.4413 23.1116 75.8977 22.6567C76.1568 22.5758 76.4189 22.5351 76.6771 22.531L75.2548 17.9572C74.8006 16.4967 75.6131 14.9439 77.0694 14.489C77.6109 14.3199 78.1651 14.3263 78.6711 14.4762C78.6301 13.2611 79.3966 12.1197 80.6102 11.7406C82.0666 11.2857 83.6154 12.101 84.0696 13.5615L84.2177 14.0378C84.5539 13.5871 85.0297 13.2346 85.6066 13.0544C86.4782 12.7822 87.3828 12.9648 88.0662 13.4684C87.8663 12.8015 87.7953 12.1022 87.8574 11.4082C87.9214 10.6932 88.1254 9.99777 88.4576 9.36175C88.7899 8.72573 89.2439 8.16155 89.7938 7.70146C90.3437 7.24136 90.9787 6.89438 91.6624 6.68032Z"
        fill="#B8E6FF" />
    <path fill-rule="evenodd" clip-rule="evenodd"
        d="M101.521 36.7479C101.665 37.1175 101.483 37.5343 101.114 37.6789C98.0047 38.8984 96.7481 40.9791 96.5187 41.715C96.4006 42.0937 95.9984 42.3048 95.6205 42.1865C95.2425 42.0681 95.0319 41.6651 95.15 41.2863C95.518 40.106 97.1055 37.7079 100.592 36.3406C100.961 36.196 101.377 36.3784 101.521 36.7479Z"
        fill="#004DA5" />
    <path fill-rule="evenodd" clip-rule="evenodd"
        d="M95.557 31.1916C94.8269 31.4239 93.7776 31.8174 92.3629 32.4554C92.0018 32.6182 91.5774 32.4569 91.4149 32.095C91.2524 31.7331 91.4134 31.3077 91.7745 31.1449C93.2277 30.4895 94.3293 30.0745 95.1228 29.8219C95.8859 29.579 96.428 29.4648 96.729 29.4648C97.125 29.4648 97.446 29.7865 97.446 30.1834C97.446 30.5802 97.125 30.9019 96.729 30.9019C96.7293 30.9019 96.7292 30.9019 96.7287 30.902C96.7251 30.9021 96.6996 30.9033 96.6452 30.9111C96.5873 30.9194 96.5084 30.9336 96.4066 30.9559C96.2031 31.0007 95.9222 31.0753 95.557 31.1916Z"
        fill="#004DA5" />
    <path fill-rule="evenodd" clip-rule="evenodd"
        d="M88.6699 12.9587C89.0543 12.8634 89.443 13.0984 89.5381 13.4836L93.84 30.9083C93.9351 31.2935 93.7006 31.6831 93.3162 31.7784C92.9318 31.8737 92.5431 31.6387 92.448 31.2534L88.1462 13.8288C88.0511 13.4436 88.2856 13.054 88.6699 12.9587Z"
        fill="#004DA5" />
    <path fill-rule="evenodd" clip-rule="evenodd"
        d="M91.381 62.8469C91.5124 62.4726 91.9218 62.2759 92.2953 62.4076C93.1773 62.7186 95.4277 63.0686 97.2482 62.0464C97.5936 61.8524 98.0306 61.9758 98.2241 62.322C98.4177 62.6682 98.2945 63.1061 97.9491 63.3001C95.6282 64.6033 92.906 64.1464 91.8194 63.7632C91.4458 63.6315 91.2496 63.2213 91.381 62.8469Z"
        fill="#004DA5" />
    <path fill-rule="evenodd" clip-rule="evenodd"
        d="M79.1259 0.0263377C81.1766 0.269584 82.6422 2.13282 82.3995 4.18799L79.7105 26.9573H80.1471L82.4259 7.66177C82.6251 5.97507 84.1509 4.76956 85.8339 4.9692C87.5169 5.16883 88.7198 6.69801 88.5206 8.38471L86.3272 26.9573H86.5427L87.7503 18.6508C87.9793 17.0761 89.4386 15.9856 91.0099 16.215C92.5811 16.4444 93.6693 17.907 93.4404 19.4817L90.9377 36.6953V37.1751C90.9601 44.7083 88.3779 52.0167 83.6304 57.8573C78.8829 63.6979 72.2633 67.71 64.8972 69.2113L63.1048 69.5706C62.7845 69.6376 62.4532 69.6304 62.1361 69.5497C61.819 69.4689 61.5244 69.3168 61.2748 69.1047C61.0253 68.8927 60.8272 68.6264 60.6958 68.3261C60.5644 68.0259 60.5031 67.6995 60.5165 67.3719L61.0729 52.7614C60.988 52.6739 60.9075 52.5818 60.8318 52.4855C60.4975 52.0605 60.2646 51.5646 60.1509 51.0356L55.634 23.0771C55.585 22.774 55.5992 22.464 55.6759 22.1667C55.7525 21.8694 55.8898 21.5912 56.0791 21.3498C56.2685 21.1084 56.5057 20.909 56.7759 20.7641C57.046 20.6193 57.3432 20.5322 57.6487 20.5083C59.0009 20.4024 60.3419 20.8221 61.3937 21.6802C62.4456 22.5384 63.1276 23.7693 63.2984 25.1177L64.5451 34.974L64.9829 34.9748C64.8945 34.6636 64.8471 34.335 64.8471 33.9954V6.59378C64.8471 4.62347 66.4409 3.02622 68.4069 3.02622C70.3729 3.02622 71.9666 4.62347 71.9666 6.59378V26.9573H72.1802L74.9733 3.30712C75.216 1.25195 77.0752 -0.216908 79.1259 0.0263377Z"
        fill="#F58B00" />
    <path fill-rule="evenodd" clip-rule="evenodd"
        d="M88.0635 17.7173C88.4541 17.7956 88.7074 18.1764 88.6293 18.5679L86.5069 29.2033C86.4288 29.5948 86.0488 29.8487 85.6581 29.7704C85.2675 29.6921 85.0141 29.3112 85.0923 28.9197L87.2147 18.2844C87.2928 17.8929 87.6728 17.639 88.0635 17.7173Z"
        fill="#CC7400" />
    <path fill-rule="evenodd" clip-rule="evenodd"
        d="M81.9288 9.50364C82.3252 9.54337 82.6144 9.89762 82.5747 10.2949L80.7555 28.5269C80.7159 28.9242 80.3624 29.214 79.966 29.1743C79.5696 29.1346 79.2804 28.7803 79.32 28.3831L81.1393 10.151C81.1789 9.75376 81.5324 9.46392 81.9288 9.50364Z"
        fill="#CC7400" />
    <path fill-rule="evenodd" clip-rule="evenodd"
        d="M74.9517 4.03265C75.3483 4.07076 75.6389 4.42382 75.6009 4.82124L73.4785 27.0036C73.4404 27.401 73.0881 27.6923 72.6916 27.6542C72.295 27.616 72.0044 27.263 72.0424 26.8656L74.1648 4.68324C74.2029 4.28582 74.5552 3.99454 74.9517 4.03265Z"
        fill="#CC7400" />
    <mask id="mask0_2881_9624" style="mask-type:alpha" maskUnits="userSpaceOnUse" x="14" y="28"
        width="133" height="132">
        <circle cx="80.4794" cy="94.0204" r="65.9794" fill="#EBF8FF" />
    </mask>
    <g mask="url(#mask0_2881_9624)">
        <path
            d="M84.1168 130.954C84.1168 129.881 81.0006 129.022 76.837 128.826C76.599 124.668 75.6825 121.576 74.6088 121.578C73.5352 121.581 72.6425 124.696 72.414 128.876C68.2385 129.162 65.1342 130.095 65.1485 131.171C65.1628 132.247 68.2647 133.106 72.4283 133.299C72.6782 137.457 73.5828 140.55 74.6541 140.547C75.7253 140.545 76.6228 137.429 76.8513 133.249C81.0268 132.963 84.1287 132.03 84.1168 130.954Z"
            fill="#D1EFFF" />
        <path
            d="M47.984 50.8919C47.984 49.8183 44.8678 48.959 40.7042 48.7638C40.4662 44.6053 39.5497 41.5132 38.476 41.5156C37.4024 41.518 36.5097 44.6339 36.2812 48.8138C32.1057 49.0994 29.0014 50.0325 29.0157 51.1085C29.03 52.1844 32.1318 53.0437 36.2954 53.2365C36.5454 57.395 37.45 60.4871 38.5213 60.4847C39.5925 60.4823 40.49 57.3664 40.7185 53.1865C44.894 52.9009 47.9959 51.9678 47.984 50.8919Z"
            fill="#D1EFFF" />
        <path
            d="M111.833 56.0891C111.732 55.9761 111.601 55.8944 111.455 55.8536C111.309 55.8128 111.154 55.8145 111.01 55.8587C110.865 55.9028 110.735 55.9875 110.637 56.1028C110.538 56.218 110.474 56.3591 110.453 56.5094L110.249 57.9034C109.023 66.4001 99.573 70.424 92.8657 66.0552L91.5322 63.8278C91.3399 63.9805 91.2056 64.1946 91.1515 64.4345C91.0974 64.6743 91.1267 64.9255 91.2346 65.1463L129.991 142.738L160.989 111.266L111.833 56.0891Z"
            fill="#0070F2" />
        <path
            d="M31.1031 137.948L10.5618 116.004C8.79154 114.115 7.82929 111.607 7.88088 109.016C7.93247 106.425 8.99379 103.957 10.8378 102.14L58.7388 54.9136C60.4028 53.2779 62.5093 52.1676 64.797 51.7205C67.0848 51.2735 69.4532 51.5093 71.6084 52.3987C72.9598 52.9572 74.1834 53.786 75.2044 54.8344C76.2255 55.8828 77.0226 57.1288 77.5469 58.4963C78.0713 59.8638 78.3121 61.324 78.2544 62.7879C78.1967 64.2517 77.8419 65.6885 77.2116 67.0103L44.2452 135.911C43.679 137.095 42.8335 138.122 41.7819 138.905C40.7303 139.687 39.5043 140.201 38.2099 140.402C36.9156 140.602 35.5919 140.484 34.3536 140.056C33.1153 139.629 31.9995 138.905 31.1031 137.948Z"
            fill="#00A58A" />
        <path
            d="M75.3587 75.1139C74.1614 63.6172 62.5536 52.3864 51.8635 58.8533L-3.64453 112.46L39.9546 156.701L75.1149 80.0539C75.5202 79.1702 75.6811 78.1937 75.581 77.2264L75.3587 75.1139Z"
            fill="#64EDD2" />
        <path
            d="M73.3678 80.2231C73.3678 81.7335 72.1461 82.9579 70.639 82.9579C69.1319 82.9579 67.9102 81.7335 67.9102 80.2231C67.9102 78.7127 69.1319 77.4883 70.639 77.4883C72.1461 77.4883 73.3678 78.7127 73.3678 80.2231Z"
            fill="#00A58A" />
        <path
            d="M69.2741 87.5161C69.2741 89.0265 68.0523 90.2509 66.5452 90.2509C65.0381 90.2509 63.8164 89.0265 63.8164 87.5161C63.8164 86.0057 65.0381 84.7812 66.5452 84.7812C68.0523 84.7812 69.2741 86.0057 69.2741 87.5161Z"
            fill="#00A58A" />
    </g>
</svg>
    