<svg width="160" height="160" viewBox="0 0 160 160" fill="none" xmlns="http://www.w3.org/2000/svg">
    <path d="M32.285 20.0518L15.9505 118.583C15.226 122.953 18.1789 127.084 22.5459 127.809L91.0229 139.179C95.39 139.904 99.5175 136.949 100.242 132.578L116.577 34.0472C117.301 29.6767 114.348 25.546 109.981 24.8209L41.5042 13.4514C37.1371 12.7263 33.0096 15.6814 32.285 20.0518Z" fill="#F58B00"/>
    <path d="M89.4947 18.1261H23.0173C18.5905 18.1261 15.002 21.7175 15.002 26.1476V122.035C15.002 126.465 18.5905 130.056 23.0173 130.056H89.4947C93.9214 130.056 97.51 126.465 97.51 122.035V26.1476C97.51 21.7175 93.9214 18.1261 89.4947 18.1261Z" fill="white"/>
    <path d="M89.4946 131.059H23.0173C20.6257 131.059 18.3322 130.108 16.6411 128.416C14.95 126.724 14 124.428 14 122.035V26.1476C14 23.7543 14.95 21.4589 16.6411 19.7665C18.3322 18.0742 20.6257 17.1234 23.0173 17.1234H89.4946C91.8862 17.1234 94.1797 18.0742 95.8708 19.7665C97.5619 21.4589 98.5119 23.7543 98.5119 26.1476V122.035C98.5119 124.428 97.5619 126.724 95.8708 128.416C94.1797 130.108 91.8862 131.059 89.4946 131.059ZM23.0173 19.1288C21.1572 19.1288 19.3733 19.8683 18.058 21.1846C16.7427 22.5008 16.0038 24.2861 16.0038 26.1476V122.035C16.0038 123.896 16.7427 125.682 18.058 126.998C19.3733 128.314 21.1572 129.054 23.0173 129.054H89.4946C91.3547 129.054 93.1386 128.314 94.4539 126.998C95.7691 125.682 96.5081 123.896 96.5081 122.035V26.1476C96.5081 24.2861 95.7691 22.5008 94.4539 21.1846C93.1386 19.8683 91.3547 19.1288 89.4946 19.1288H23.0173Z" fill="#00144A"/>
    <path d="M76.6666 76C76.6666 87.0457 67.7123 96 56.6666 96C45.6209 96 36.6666 87.0457 36.6666 76C36.6666 64.9543 45.6209 56 56.6666 56C67.7123 56 76.6666 64.9543 76.6666 76Z" fill="white"/>
    <path d="M56.6666 56C52.711 56 48.8442 57.173 45.5552 59.3706C42.2662 61.5682 39.7028 64.6922 38.189 68.3467C36.6753 72.0012 36.2792 76.0222 37.0509 79.9019C37.8226 83.7815 39.7274 87.345 42.5245 90.1421C45.3215 92.9391 48.8852 94.844 52.7648 95.6157C56.6444 96.3874 60.6658 95.9913 64.3203 94.4775C67.9748 92.9638 71.0984 90.4003 73.296 87.1113C75.4936 83.8223 76.6666 79.9556 76.6666 76C76.6666 70.6957 74.5595 65.6086 70.8088 61.8579C67.058 58.1072 61.9709 56 56.6666 56ZM56.6666 88C56.0733 88 55.4933 87.8243 54.9999 87.4946C54.5066 87.165 54.1221 86.6961 53.895 86.1479C53.6679 85.5998 53.6085 84.997 53.7243 84.415C53.8401 83.8331 54.1258 83.2985 54.5453 82.8789C54.9649 82.4593 55.4994 82.1734 56.0814 82.0576C56.6633 81.9419 57.2665 82.0014 57.8147 82.2285C58.3629 82.4556 58.8314 82.8401 59.1611 83.3335C59.4907 83.8268 59.6666 84.4067 59.6666 85C59.6666 85.7956 59.3506 86.559 58.788 87.1216C58.2253 87.6842 57.4623 88 56.6666 88ZM59.8267 77.8003C59.5514 77.9307 59.2842 78.0776 59.0267 78.2402C58.8314 78.7989 58.4443 79.2702 57.9341 79.5703C57.424 79.8704 56.824 79.9797 56.2408 79.8789C55.6576 79.7781 55.1291 79.4734 54.7493 79.0195C54.3695 78.5656 54.163 77.9917 54.1666 77.3999C54.1666 75.1199 56.1666 74.1199 57.5066 73.3999C59.3866 72.4199 60.1666 71.8599 60.1666 70.4399C60.1666 69.0199 58.5666 67.9399 56.6666 67.9399C54.7666 67.9399 53.1666 69.0999 53.1666 70.4399C53.1666 71.103 52.9032 71.7392 52.4344 72.208C51.9655 72.6768 51.3297 72.9399 50.6666 72.9399C50.0036 72.9399 49.3677 72.6768 48.8989 72.208C48.43 71.7392 48.1666 71.103 48.1666 70.4399C48.4142 68.3596 49.4163 66.4424 50.9828 65.0513C52.5493 63.6601 54.5716 62.8921 56.6666 62.8921C58.7617 62.8921 60.784 63.6601 62.3505 65.0513C63.917 66.4424 64.919 68.3596 65.1666 70.4399C65.102 72.0567 64.5605 73.6185 63.6103 74.9282C62.6601 76.2379 61.3436 77.2372 59.8267 77.8003Z" fill="#004DA5"/>
    <path d="M144.85 28.8837C144.653 28.6477 144.396 28.4693 144.106 28.3671C143.816 28.2649 143.503 28.2428 143.202 28.3031L135.992 29.5503C134.799 29.756 134.328 30.8521 134.489 31.7868C134.541 32.1717 134.717 32.5294 134.99 32.8059C135.263 33.0825 135.618 33.263 136.002 33.3204C136.188 33.3426 136.377 33.3364 136.562 33.3021L143.772 32.055C144.089 32.0068 144.388 31.8736 144.636 31.6697C144.884 31.4657 145.072 31.1985 145.181 30.8964C145.302 30.5605 145.335 30.1993 145.277 29.8471C145.219 29.4949 145.072 29.1633 144.85 28.8837Z" fill="#A9B4BE"/>
    <path d="M117.444 0.0844665C117.236 0.013539 117.015 -0.0131697 116.796 0.00604575C116.576 0.0252612 116.363 0.0899774 116.171 0.196065C115.978 0.302152 115.809 0.44728 115.676 0.62218C115.542 0.797081 115.446 0.997914 115.395 1.21186L113.408 8.0569C113.337 8.30325 113.317 8.56121 113.347 8.81569C113.377 9.07018 113.458 9.3161 113.584 9.53909C113.71 9.76209 113.88 9.9577 114.082 10.1145C114.285 10.2713 114.517 10.3861 114.765 10.4523C114.866 10.4824 114.97 10.5042 115.075 10.5174C115.461 10.5717 115.855 10.4791 116.177 10.2579C116.498 10.0367 116.726 9.70286 116.814 9.32228L118.798 2.47984C118.869 2.23366 118.89 1.97579 118.86 1.72131C118.831 1.46684 118.75 1.22089 118.624 0.997832C118.498 0.774779 118.329 0.579112 118.126 0.422281C117.923 0.265449 117.692 0.150604 117.444 0.0844665Z" fill="#A9B4BE"/>
    <path d="M135.161 9.35357C134.921 9.33799 134.68 9.37152 134.454 9.4521C134.227 9.53268 134.02 9.65862 133.843 9.82222L125.865 17.0813C125.509 17.4088 125.293 17.8613 125.263 18.3441C125.233 18.8269 125.391 19.3027 125.704 19.6719C125.995 20.0132 126.404 20.2325 126.849 20.2864C127.106 20.317 127.367 20.2919 127.613 20.2129C127.859 20.1338 128.085 20.0026 128.276 19.8281L136.255 12.5691C136.613 12.24 136.829 11.7848 136.859 11.2993C136.889 10.8138 136.729 10.3356 136.413 9.96543C136.257 9.78436 136.065 9.63682 135.85 9.53168C135.634 9.42654 135.4 9.36596 135.161 9.35357Z" fill="#A9B4BE"/>
    <path d="M56.6667 160C75.8125 160 91.3333 158.209 91.3333 156C91.3333 153.791 75.8125 152 56.6667 152C37.5208 152 22 153.791 22 156C22 158.209 37.5208 160 56.6667 160Z" fill="#D5DADD"/>
    </svg>
    