<svg
viewBox="0 0 264 162"
xmlns="http://www.w3.org/2000/svg">
<g clip-path="url(#clip0_1_58)">
  <path
    d="M218.638 19.7373C219.843 19.9968 220.895 20.724 221.564 21.7594C222.233 22.7947 222.464 24.0535 222.207 25.2594L206.416 98.701C206.155 99.906 205.427 100.958 204.391 101.626C203.356 102.294 202.098 102.523 200.894 102.264L148.875 91.054C147.671 90.794 146.62 90.067 145.952 89.032C145.284 87.996 145.055 86.738 145.314 85.533L159.623 18.9824L175.916 10.5305L218.638 19.7373Z"
    fill="#B8E6FF" />
  <path
    d="M222.365 17.3291C223.569 17.5886 224.621 18.3158 225.29 19.3512C225.959 20.3865 226.191 21.6453 225.933 22.8512L210.143 96.293C209.881 97.498 209.153 98.55 208.118 99.218C207.083 99.886 205.825 100.115 204.621 99.856L152.601 88.645C152.005 88.517 151.44 88.272 150.939 87.925C150.438 87.579 150.009 87.136 149.679 86.624C149.348 86.111 149.122 85.538 149.012 84.938C148.902 84.338 148.912 83.722 149.04 83.125L163.35 16.5742L179.643 8.1223L222.365 17.3291Z"
    fill="#D1EFFF" />
  <path d="M177.191 19.5566L162.756 19.3684L163.357 16.5753L177.191 19.5566Z" fill="#9EDDFF" />
  <path d="M177.19 19.5563L163.356 16.5749L179.648 8.123L177.19 19.5563Z" fill="#B8E6FF" />
  <path
    d="M259.618 58.8433L263.312 62.4277L253.471 72.592L249.776 69.008L259.618 58.8433Z"
    fill="#9EDDFF" />
  <path
    d="M201.773 142.679L154.632 108.025C152.63 106.554 152.199 103.737 153.669 101.734L204.03 33.0799C205.5 31.0764 208.314 30.645 210.315 32.1164L257.456 66.77C259.458 68.241 259.889 71.058 258.419 73.062L208.058 141.716C206.588 143.719 203.774 144.15 201.773 142.679Z"
    fill="#9EDDFF" />
  <path
    d="M246.498 53.7545L250.746 56.6602L242.768 68.348L238.521 65.442L246.498 53.7545Z"
    fill="#9EDDFF" />
  <path
    d="M203.816 144.166L156.969 109.356C154.98 107.878 154.564 105.066 156.04 103.075L206.63 34.8477C208.106 32.8567 210.915 32.4408 212.904 33.9188L259.752 68.729C261.741 70.207 262.157 73.019 260.68 75.01L210.091 143.237C208.615 145.228 205.805 145.644 203.816 144.166Z"
    fill="#B8E6FF" />
  <path
    d="M210.671 54.5452L238.254 75.041L230.963 84.873L203.38 64.3777L210.671 54.5452Z"
    fill="#EBF8FF" />
  <path
    d="M24.7029 60.9664C32.9905 70.264 43.2529 80.154 49.7601 73.037C57.9145 64.1132 49.3354 56.0536 41.0191 46.7304C32.7028 37.4071 24.5357 30.9488 17.7813 36.9984C11.434 42.6648 16.3803 51.6271 24.7029 60.9664Z"
    fill="#9EDDFF" />
  <path
    d="M11.2966 58.3266C4.9528 58.1273 -0.0989989 55.0761 0.0132011 51.5115C0.125401 47.947 5.3591 45.219 11.7029 45.4183C18.0468 45.6177 23.0985 48.6689 22.9863 52.2334C22.8741 55.798 17.6405 58.526 11.2966 58.3266Z"
    fill="#9EDDFF" />
  <path
    d="M21.3306 83.499C26.6111 88.261 33.1153 89.604 35.9134 86.552C42.7478 79.095 37.0833 76.738 31.3623 72.35C25.6413 67.9618 19.6178 66.2815 16.7795 69.297C11.5694 74.822 16.0214 78.712 21.3306 83.499Z"
    fill="#9EDDFF" />
  <path
    d="M33.1672 101.636L70.3747 60.2825C70.815 59.7932 71.568 59.7537 72.0567 60.1944L99.942 85.341C100.43 85.781 100.47 86.535 100.029 87.025L62.8218 128.378C62.3815 128.868 61.6285 128.907 61.1398 128.466L33.2549 103.32C32.7662 102.879 32.7269 102.126 33.1672 101.636Z"
    fill="#B8E6FF" />
  <path
    d="M28.23 97.13L65.3806 55.8391C65.8208 55.3498 66.5739 55.3104 67.0626 55.7511L77.072 64.7774C77.5607 65.2181 77.5999 65.9721 77.1597 66.4614L40.0091 107.752C39.5689 108.241 38.8158 108.28 38.3271 107.84L28.3177 98.813C27.829 98.373 27.7897 97.619 28.23 97.13Z"
    fill="#9EDDFF" />
  <path
    d="M22.1343 96.166L63.488 50.2043C63.9283 49.715 64.6813 49.6756 65.17 50.1163L76.139 60.008C76.6277 60.4487 76.6669 61.2026 76.2267 61.6919L34.8729 107.654C34.4327 108.143 33.6796 108.183 33.1909 107.742L22.222 97.85C21.7333 97.41 21.694 96.656 22.1343 96.166Z"
    fill="#B8E6FF" />
  <path
    fill-rule="evenodd"
    clip-rule="evenodd"
    d="M120.477 1.8853C121.231 0.4618 123.349 0.751902 123.695 2.3259L158.116 159.132C158.433 160.572 156.92 161.722 155.618 161.031L63.9321 112.374C63.088 111.926 62.7663 110.878 63.2134 110.034L120.477 1.8853ZM115.349 63.5859C115.004 62.0119 112.885 61.7219 112.132 63.1454L91.989 101.187C91.542 102.031 91.864 103.079 92.708 103.527L124.958 120.642C126.26 121.333 127.773 120.183 127.457 118.742L115.349 63.5859Z"
    fill="#00A58A" />
  <path d="M156.571 161.357H160.27L158.754 156.265L156.571 161.357Z" fill="#00A58A" />
  <path d="M121.96 0.695297H125.658L124.142 5.7873L121.96 0.695297Z" fill="#00A58A" />
  <path
    fill-rule="evenodd"
    clip-rule="evenodd"
    d="M124.015 1.8912C124.768 0.467702 126.887 0.7577 127.232 2.3317L161.654 159.138C161.97 160.578 160.457 161.728 159.155 161.037L67.4692 112.38C66.6252 111.932 66.3034 110.884 66.7506 110.04L124.015 1.8912ZM118.886 63.5918C118.541 62.0178 116.423 61.7278 115.669 63.1513L95.526 101.193C95.079 102.037 95.401 103.085 96.245 103.533L128.495 120.648C129.797 121.339 131.31 120.189 130.994 118.748L118.886 63.5918Z"
    fill="#64EDD2" />
  <path
    fill-rule="evenodd"
    clip-rule="evenodd"
    d="M111.822 26.2793C111.859 26.3119 111.901 26.3415 111.948 26.3651L118.44 29.7652C118.761 29.9322 119.155 29.8096 119.322 29.4884C119.491 29.169 119.372 28.7739 119.046 28.6062L112.554 25.2072C112.234 25.0391 111.838 25.1628 111.672 25.4829C111.528 25.7562 111.598 26.0842 111.822 26.2793Z"
    fill="white" />
  <path
    fill-rule="evenodd"
    clip-rule="evenodd"
    d="M108.329 32.8779C108.366 32.9105 108.408 32.9401 108.455 32.9638L114.947 36.3638C115.268 36.5308 115.662 36.4082 115.829 36.087C115.998 35.7676 115.882 35.3704 115.553 35.2048L109.061 31.8058C108.741 31.6378 108.345 31.7614 108.179 32.0816C108.035 32.3548 108.105 32.6828 108.329 32.8779Z"
    fill="white" />
  <path
    fill-rule="evenodd"
    clip-rule="evenodd"
    d="M104.251 40.5758C104.289 40.6085 104.331 40.638 104.378 40.6617L115.75 46.6167C116.07 46.7847 116.466 46.6611 116.632 46.3409C116.8 46.0215 116.682 45.6254 116.357 45.4577L104.983 39.5037C104.663 39.3357 104.268 39.4593 104.102 39.7795C103.958 40.0527 104.028 40.3808 104.251 40.5758Z"
    fill="white" />
  <path
    fill-rule="evenodd"
    clip-rule="evenodd"
    d="M100.189 48.2483C100.226 48.2809 100.268 48.3105 100.315 48.3341L106.807 51.7342C107.128 51.9012 107.522 51.7786 107.689 51.4574C107.857 51.139 107.739 50.7419 107.413 50.5752L100.921 47.1762C100.6 47.0081 100.205 47.1318 100.039 47.4519C99.895 47.7252 99.965 48.0532 100.189 48.2483Z"
    fill="white" />
  <path
    fill-rule="evenodd"
    clip-rule="evenodd"
    d="M96.697 54.844C96.734 54.8766 96.776 54.9062 96.823 54.9299L103.315 58.3299C103.635 58.4969 104.03 58.3743 104.197 58.0531C104.365 57.7347 104.247 57.3376 103.921 57.1709L97.428 53.7719C97.108 53.6039 96.713 53.7275 96.547 54.0476C96.403 54.3209 96.473 54.6489 96.697 54.844Z"
    fill="white" />
  <path
    fill-rule="evenodd"
    clip-rule="evenodd"
    d="M93.204 61.4423C93.241 61.475 93.283 61.5045 93.33 61.5282L99.823 64.9272C100.144 65.0943 100.538 64.9716 100.705 64.6505C100.873 64.332 100.755 63.9368 100.429 63.7683L93.936 60.3702C93.616 60.2022 93.22 60.3258 93.054 60.646C92.91 60.9192 92.98 61.2472 93.204 61.4423Z"
    fill="white" />
  <path
    fill-rule="evenodd"
    clip-rule="evenodd"
    d="M89.711 68.039C89.748 68.072 89.79 68.101 89.837 68.125L96.328 71.525C96.649 71.692 97.044 71.569 97.211 71.248C97.379 70.929 97.258 70.532 96.935 70.366L90.442 66.9669C90.122 66.7989 89.727 66.9225 89.561 67.2427C89.417 67.5159 89.487 67.844 89.711 68.039Z"
    fill="white" />
  <path
    fill-rule="evenodd"
    clip-rule="evenodd"
    d="M85.634 75.738C85.671 75.771 85.713 75.8 85.76 75.824L97.133 81.779C97.453 81.947 97.848 81.823 98.014 81.503C98.183 81.184 98.067 80.788 97.739 80.62L86.366 74.666C86.045 74.498 85.65 74.622 85.484 74.942C85.34 75.215 85.41 75.543 85.634 75.738Z"
    fill="white" />
  <path
    fill-rule="evenodd"
    clip-rule="evenodd"
    d="M81.5714 83.411C81.6089 83.443 81.6508 83.473 81.6978 83.497L88.189 86.897C88.51 87.064 88.905 86.941 89.071 86.62C89.239 86.301 89.124 85.904 88.795 85.738L82.3032 82.339C81.983 82.171 81.5877 82.294 81.4218 82.614C81.2777 82.888 81.3476 83.216 81.5714 83.411Z"
    fill="white" />
  <path
    fill-rule="evenodd"
    clip-rule="evenodd"
    d="M78.0792 90.006C78.1166 90.039 78.1585 90.069 78.2056 90.092L84.697 93.492C85.018 93.659 85.412 93.537 85.579 93.216C85.748 92.896 85.632 92.5 85.303 92.333L78.8109 88.934C78.4908 88.766 78.0954 88.89 77.9295 89.21C77.7854 89.483 77.8554 89.811 78.0792 90.006Z"
    fill="white" />
  <path
    fill-rule="evenodd"
    clip-rule="evenodd"
    d="M74.5853 96.604C74.6228 96.636 74.6647 96.666 74.7117 96.69L81.2031 100.09C81.5241 100.257 81.9186 100.134 82.0854 99.813C82.2541 99.494 82.1339 99.096 81.8093 98.931L75.3171 95.532C74.9969 95.364 74.6016 95.487 74.4357 95.807C74.2916 96.081 74.3615 96.409 74.5853 96.604Z"
    fill="white" />
  <path
    fill-rule="evenodd"
    clip-rule="evenodd"
    d="M71.0931 103.2C71.1306 103.232 71.1725 103.262 71.2195 103.285L77.7109 106.685C78.0319 106.852 78.4264 106.73 78.5932 106.409C78.7619 106.089 78.6437 105.693 78.3172 105.526L71.8249 102.127C71.5047 101.959 71.1094 102.083 70.9435 102.403C70.7994 102.676 70.8693 103.004 71.0931 103.2Z"
    fill="white" />
  <path
    fill-rule="evenodd"
    clip-rule="evenodd"
    d="M67.0153 110.9C67.0528 110.932 67.0946 110.962 67.1417 110.986L78.5134 116.942C78.8336 117.11 79.2289 116.986 79.3948 116.666C79.5635 116.346 79.4451 115.947 79.1197 115.783L67.747 109.828C67.4269 109.66 67.0316 109.783 66.8657 110.103C66.7215 110.377 66.7915 110.705 67.0153 110.9Z"
    fill="white" />
  <path d="M211.076 138.713L193.36 109.345L179.027 126.564L211.076 138.713Z" fill="#D5DADD" />
  <path
    fill-rule="evenodd"
    clip-rule="evenodd"
    d="M97.592 58.5739L111.875 41.4141L193.264 109.312C193.273 109.32 193.283 109.328 193.292 109.336C194.764 110.564 192.76 115.401 188.816 120.139C184.872 124.878 180.481 127.724 179.009 126.495L179.008 126.496L97.592 58.5739Z"
    fill="#F58B00" />
  <path
    fill-rule="evenodd"
    clip-rule="evenodd"
    d="M187.549 121.582L103.506 51.4688L97.592 58.5737L179.009 126.495C180.325 127.593 183.973 125.436 187.549 121.582Z"
    fill="#CC7400" />
  <path
    fill-rule="evenodd"
    clip-rule="evenodd"
    d="M92.41 54.2517L106.693 37.0918L111.847 41.3915C111.856 41.3984 111.865 41.4056 111.874 41.4128C113.346 42.6409 111.342 47.4779 107.398 52.2165C103.454 56.955 99.063 59.8008 97.591 58.5727C97.59 58.5726 97.59 58.5724 97.59 58.5723L92.41 54.2517Z"
    fill="#A9B4BE" />
  <path
    fill-rule="evenodd"
    clip-rule="evenodd"
    d="M81.7462 45.3571L96.029 28.1973L106.663 37.0688C106.673 37.0765 106.683 37.0844 106.693 37.0925C108.165 38.3206 106.161 43.1575 102.217 47.8961C98.273 52.6347 93.882 55.4804 92.41 54.2523L92.409 54.2515L92.408 54.252L81.7462 45.3571Z"
    fill="#0070F2" />
  <path
    d="M91.5545 39.002C87.6103 43.7405 83.2195 46.5863 81.7474 45.3582C80.2753 44.1301 82.2793 39.2931 86.2234 34.5545C90.1676 29.816 94.5584 26.9702 96.0305 28.1983C97.5027 29.4264 95.4987 34.2634 91.5545 39.002Z"
    fill="#004DA5" />
  <path
    fill-rule="evenodd"
    clip-rule="evenodd"
    d="M203.07 125.438C202.283 126.76 201.286 128.17 200.12 129.571C198.954 130.972 197.749 132.208 196.592 133.221L211.079 138.713L203.07 125.438Z"
    fill="#00144A" />
</g>
<defs>
  <clipPath id="clip0_1_58">
    <rect width="264" height="162" fill="white" />
  </clipPath>
</defs>
</svg>